<?xml version="1.0" encoding="utf-8" standalone="no"?>
<!DOCTYPE svg PUBLIC "-//W3C//DTD SVG 1.1//EN"
  "http://www.w3.org/Graphics/SVG/1.1/DTD/svg11.dtd">
<!-- Created with matplotlib (http://matplotlib.org/) -->
<svg height="345pt" version="1.1" viewBox="0 0 460 345" width="460pt" xmlns="http://www.w3.org/2000/svg" xmlns:xlink="http://www.w3.org/1999/xlink">
 <defs>
  <style type="text/css">
*{stroke-linecap:butt;stroke-linejoin:round;}
  </style>
 </defs>
 <g id="figure_1">
  <g id="patch_1">
   <path d="M 0 345.6 
L 460.8 345.6 
L 460.8 0 
L 0 0 
z
" style="fill:#ffffff;"/>
  </g>
  <g id="axes_1">
   <g id="patch_2">
    <path d="M 57.6 162.432 
L 219.927273 162.432 
L 219.927273 41.472 
L 57.6 41.472 
z
" style="fill:#ffffff;"/>
   </g>
   <g id="matplotlib.axis_1">
    <g id="xtick_1">
     <g id="line2d_1">
      <defs>
       <path d="M 0 0 
L 0 3.5 
" id="m2b962dcb1a" style="stroke:#000000;stroke-width:0.8;"/>
      </defs>
      <g>
       <use style="stroke:#000000;stroke-width:0.8;" x="64.978512" xlink:href="#m2b962dcb1a" y="162.432"/>
      </g>
     </g>
     <g id="text_1">
      <!-- 0 -->
      <defs>
       <path d="M 31.78125 66.40625 
Q 24.171875 66.40625 20.328125 58.90625 
Q 16.5 51.421875 16.5 36.375 
Q 16.5 21.390625 20.328125 13.890625 
Q 24.171875 6.390625 31.78125 6.390625 
Q 39.453125 6.390625 43.28125 13.890625 
Q 47.125 21.390625 47.125 36.375 
Q 47.125 51.421875 43.28125 58.90625 
Q 39.453125 66.40625 31.78125 66.40625 
z
M 31.78125 74.21875 
Q 44.046875 74.21875 50.515625 64.515625 
Q 56.984375 54.828125 56.984375 36.375 
Q 56.984375 17.96875 50.515625 8.265625 
Q 44.046875 -1.421875 31.78125 -1.421875 
Q 19.53125 -1.421875 13.0625 8.265625 
Q 6.59375 17.96875 6.59375 36.375 
Q 6.59375 54.828125 13.0625 64.515625 
Q 19.53125 74.21875 31.78125 74.21875 
z
" id="DejaVuSans-30"/>
      </defs>
      <g transform="translate(61.797262 177.030437)scale(0.1 -0.1)">
       <use xlink:href="#DejaVuSans-30"/>
      </g>
     </g>
    </g>
    <g id="xtick_2">
     <g id="line2d_2">
      <g>
       <use style="stroke:#000000;stroke-width:0.8;" x="101.871074" xlink:href="#m2b962dcb1a" y="162.432"/>
      </g>
     </g>
     <g id="text_2">
      <!-- 2 -->
      <defs>
       <path d="M 19.1875 8.296875 
L 53.609375 8.296875 
L 53.609375 0 
L 7.328125 0 
L 7.328125 8.296875 
Q 12.9375 14.109375 22.625 23.890625 
Q 32.328125 33.6875 34.8125 36.53125 
Q 39.546875 41.84375 41.421875 45.53125 
Q 43.3125 49.21875 43.3125 52.78125 
Q 43.3125 58.59375 39.234375 62.25 
Q 35.15625 65.921875 28.609375 65.921875 
Q 23.96875 65.921875 18.8125 64.3125 
Q 13.671875 62.703125 7.8125 59.421875 
L 7.8125 69.390625 
Q 13.765625 71.78125 18.9375 73 
Q 24.125 74.21875 28.421875 74.21875 
Q 39.75 74.21875 46.484375 68.546875 
Q 53.21875 62.890625 53.21875 53.421875 
Q 53.21875 48.921875 51.53125 44.890625 
Q 49.859375 40.875 45.40625 35.40625 
Q 44.1875 33.984375 37.640625 27.21875 
Q 31.109375 20.453125 19.1875 8.296875 
z
" id="DejaVuSans-32"/>
      </defs>
      <g transform="translate(98.689824 177.030437)scale(0.1 -0.1)">
       <use xlink:href="#DejaVuSans-32"/>
      </g>
     </g>
    </g>
    <g id="xtick_3">
     <g id="line2d_3">
      <g>
       <use style="stroke:#000000;stroke-width:0.8;" x="138.763636" xlink:href="#m2b962dcb1a" y="162.432"/>
      </g>
     </g>
     <g id="text_3">
      <!-- 4 -->
      <defs>
       <path d="M 37.796875 64.3125 
L 12.890625 25.390625 
L 37.796875 25.390625 
z
M 35.203125 72.90625 
L 47.609375 72.90625 
L 47.609375 25.390625 
L 58.015625 25.390625 
L 58.015625 17.1875 
L 47.609375 17.1875 
L 47.609375 0 
L 37.796875 0 
L 37.796875 17.1875 
L 4.890625 17.1875 
L 4.890625 26.703125 
z
" id="DejaVuSans-34"/>
      </defs>
      <g transform="translate(135.582386 177.030437)scale(0.1 -0.1)">
       <use xlink:href="#DejaVuSans-34"/>
      </g>
     </g>
    </g>
    <g id="xtick_4">
     <g id="line2d_4">
      <g>
       <use style="stroke:#000000;stroke-width:0.8;" x="175.656198" xlink:href="#m2b962dcb1a" y="162.432"/>
      </g>
     </g>
     <g id="text_4">
      <!-- 6 -->
      <defs>
       <path d="M 33.015625 40.375 
Q 26.375 40.375 22.484375 35.828125 
Q 18.609375 31.296875 18.609375 23.390625 
Q 18.609375 15.53125 22.484375 10.953125 
Q 26.375 6.390625 33.015625 6.390625 
Q 39.65625 6.390625 43.53125 10.953125 
Q 47.40625 15.53125 47.40625 23.390625 
Q 47.40625 31.296875 43.53125 35.828125 
Q 39.65625 40.375 33.015625 40.375 
z
M 52.59375 71.296875 
L 52.59375 62.3125 
Q 48.875 64.0625 45.09375 64.984375 
Q 41.3125 65.921875 37.59375 65.921875 
Q 27.828125 65.921875 22.671875 59.328125 
Q 17.53125 52.734375 16.796875 39.40625 
Q 19.671875 43.65625 24.015625 45.921875 
Q 28.375 48.1875 33.59375 48.1875 
Q 44.578125 48.1875 50.953125 41.515625 
Q 57.328125 34.859375 57.328125 23.390625 
Q 57.328125 12.15625 50.6875 5.359375 
Q 44.046875 -1.421875 33.015625 -1.421875 
Q 20.359375 -1.421875 13.671875 8.265625 
Q 6.984375 17.96875 6.984375 36.375 
Q 6.984375 53.65625 15.1875 63.9375 
Q 23.390625 74.21875 37.203125 74.21875 
Q 40.921875 74.21875 44.703125 73.484375 
Q 48.484375 72.75 52.59375 71.296875 
z
" id="DejaVuSans-36"/>
      </defs>
      <g transform="translate(172.474948 177.030437)scale(0.1 -0.1)">
       <use xlink:href="#DejaVuSans-36"/>
      </g>
     </g>
    </g>
    <g id="xtick_5">
     <g id="line2d_5">
      <g>
       <use style="stroke:#000000;stroke-width:0.8;" x="212.54876" xlink:href="#m2b962dcb1a" y="162.432"/>
      </g>
     </g>
     <g id="text_5">
      <!-- 8 -->
      <defs>
       <path d="M 31.78125 34.625 
Q 24.75 34.625 20.71875 30.859375 
Q 16.703125 27.09375 16.703125 20.515625 
Q 16.703125 13.921875 20.71875 10.15625 
Q 24.75 6.390625 31.78125 6.390625 
Q 38.8125 6.390625 42.859375 10.171875 
Q 46.921875 13.96875 46.921875 20.515625 
Q 46.921875 27.09375 42.890625 30.859375 
Q 38.875 34.625 31.78125 34.625 
z
M 21.921875 38.8125 
Q 15.578125 40.375 12.03125 44.71875 
Q 8.5 49.078125 8.5 55.328125 
Q 8.5 64.0625 14.71875 69.140625 
Q 20.953125 74.21875 31.78125 74.21875 
Q 42.671875 74.21875 48.875 69.140625 
Q 55.078125 64.0625 55.078125 55.328125 
Q 55.078125 49.078125 51.53125 44.71875 
Q 48 40.375 41.703125 38.8125 
Q 48.828125 37.15625 52.796875 32.3125 
Q 56.78125 27.484375 56.78125 20.515625 
Q 56.78125 9.90625 50.3125 4.234375 
Q 43.84375 -1.421875 31.78125 -1.421875 
Q 19.734375 -1.421875 13.25 4.234375 
Q 6.78125 9.90625 6.78125 20.515625 
Q 6.78125 27.484375 10.78125 32.3125 
Q 14.796875 37.15625 21.921875 38.8125 
z
M 18.3125 54.390625 
Q 18.3125 48.734375 21.84375 45.5625 
Q 25.390625 42.390625 31.78125 42.390625 
Q 38.140625 42.390625 41.71875 45.5625 
Q 45.3125 48.734375 45.3125 54.390625 
Q 45.3125 60.0625 41.71875 63.234375 
Q 38.140625 66.40625 31.78125 66.40625 
Q 25.390625 66.40625 21.84375 63.234375 
Q 18.3125 60.0625 18.3125 54.390625 
z
" id="DejaVuSans-38"/>
      </defs>
      <g transform="translate(209.36751 177.030437)scale(0.1 -0.1)">
       <use xlink:href="#DejaVuSans-38"/>
      </g>
     </g>
    </g>
   </g>
   <g id="matplotlib.axis_2">
    <g id="ytick_1">
     <g id="line2d_6">
      <defs>
       <path d="M 0 0 
L -3.5 0 
" id="m76bf7268ca" style="stroke:#000000;stroke-width:0.8;"/>
      </defs>
      <g>
       <use style="stroke:#000000;stroke-width:0.8;" x="57.6" xlink:href="#m76bf7268ca" y="146.601845"/>
      </g>
     </g>
     <g id="text_6">
      <!-- −5.0 -->
      <defs>
       <path d="M 10.59375 35.5 
L 73.1875 35.5 
L 73.1875 27.203125 
L 10.59375 27.203125 
z
" id="DejaVuSans-2212"/>
       <path d="M 10.796875 72.90625 
L 49.515625 72.90625 
L 49.515625 64.59375 
L 19.828125 64.59375 
L 19.828125 46.734375 
Q 21.96875 47.46875 24.109375 47.828125 
Q 26.265625 48.1875 28.421875 48.1875 
Q 40.625 48.1875 47.75 41.5 
Q 54.890625 34.8125 54.890625 23.390625 
Q 54.890625 11.625 47.5625 5.09375 
Q 40.234375 -1.421875 26.90625 -1.421875 
Q 22.3125 -1.421875 17.546875 -0.640625 
Q 12.796875 0.140625 7.71875 1.703125 
L 7.71875 11.625 
Q 12.109375 9.234375 16.796875 8.0625 
Q 21.484375 6.890625 26.703125 6.890625 
Q 35.15625 6.890625 40.078125 11.328125 
Q 45.015625 15.765625 45.015625 23.390625 
Q 45.015625 31 40.078125 35.4375 
Q 35.15625 39.890625 26.703125 39.890625 
Q 22.75 39.890625 18.8125 39.015625 
Q 14.890625 38.140625 10.796875 36.28125 
z
" id="DejaVuSans-35"/>
       <path d="M 10.6875 12.40625 
L 21 12.40625 
L 21 0 
L 10.6875 0 
z
" id="DejaVuSans-2e"/>
      </defs>
      <g transform="translate(26.317187 150.401064)scale(0.1 -0.1)">
       <use xlink:href="#DejaVuSans-2212"/>
       <use x="83.789062" xlink:href="#DejaVuSans-35"/>
       <use x="147.412109" xlink:href="#DejaVuSans-2e"/>
       <use x="179.199219" xlink:href="#DejaVuSans-30"/>
      </g>
     </g>
    </g>
    <g id="ytick_2">
     <g id="line2d_7">
      <g>
       <use style="stroke:#000000;stroke-width:0.8;" x="57.6" xlink:href="#m76bf7268ca" y="122.492699"/>
      </g>
     </g>
     <g id="text_7">
      <!-- −2.5 -->
      <g transform="translate(26.317187 126.291918)scale(0.1 -0.1)">
       <use xlink:href="#DejaVuSans-2212"/>
       <use x="83.789062" xlink:href="#DejaVuSans-32"/>
       <use x="147.412109" xlink:href="#DejaVuSans-2e"/>
       <use x="179.199219" xlink:href="#DejaVuSans-35"/>
      </g>
     </g>
    </g>
    <g id="ytick_3">
     <g id="line2d_8">
      <g>
       <use style="stroke:#000000;stroke-width:0.8;" x="57.6" xlink:href="#m76bf7268ca" y="98.383553"/>
      </g>
     </g>
     <g id="text_8">
      <!-- 0.0 -->
      <g transform="translate(34.696875 102.182772)scale(0.1 -0.1)">
       <use xlink:href="#DejaVuSans-30"/>
       <use x="63.623047" xlink:href="#DejaVuSans-2e"/>
       <use x="95.410156" xlink:href="#DejaVuSans-30"/>
      </g>
     </g>
    </g>
    <g id="ytick_4">
     <g id="line2d_9">
      <g>
       <use style="stroke:#000000;stroke-width:0.8;" x="57.6" xlink:href="#m76bf7268ca" y="74.274407"/>
      </g>
     </g>
     <g id="text_9">
      <!-- 2.5 -->
      <g transform="translate(34.696875 78.073626)scale(0.1 -0.1)">
       <use xlink:href="#DejaVuSans-32"/>
       <use x="63.623047" xlink:href="#DejaVuSans-2e"/>
       <use x="95.410156" xlink:href="#DejaVuSans-35"/>
      </g>
     </g>
    </g>
    <g id="ytick_5">
     <g id="line2d_10">
      <g>
       <use style="stroke:#000000;stroke-width:0.8;" x="57.6" xlink:href="#m76bf7268ca" y="50.165262"/>
      </g>
     </g>
     <g id="text_10">
      <!-- 5.0 -->
      <g transform="translate(34.696875 53.96448)scale(0.1 -0.1)">
       <use xlink:href="#DejaVuSans-35"/>
       <use x="63.623047" xlink:href="#DejaVuSans-2e"/>
       <use x="95.410156" xlink:href="#DejaVuSans-30"/>
      </g>
     </g>
    </g>
    <g id="text_11">
     <!-- Acceleration -->
     <defs>
      <path d="M 34.1875 63.1875 
L 20.796875 26.90625 
L 47.609375 26.90625 
z
M 28.609375 72.90625 
L 39.796875 72.90625 
L 67.578125 0 
L 57.328125 0 
L 50.6875 18.703125 
L 17.828125 18.703125 
L 11.1875 0 
L 0.78125 0 
z
" id="DejaVuSans-41"/>
      <path d="M 48.78125 52.59375 
L 48.78125 44.1875 
Q 44.96875 46.296875 41.140625 47.34375 
Q 37.3125 48.390625 33.40625 48.390625 
Q 24.65625 48.390625 19.8125 42.84375 
Q 14.984375 37.3125 14.984375 27.296875 
Q 14.984375 17.28125 19.8125 11.734375 
Q 24.65625 6.203125 33.40625 6.203125 
Q 37.3125 6.203125 41.140625 7.25 
Q 44.96875 8.296875 48.78125 10.40625 
L 48.78125 2.09375 
Q 45.015625 0.34375 40.984375 -0.53125 
Q 36.96875 -1.421875 32.421875 -1.421875 
Q 20.0625 -1.421875 12.78125 6.34375 
Q 5.515625 14.109375 5.515625 27.296875 
Q 5.515625 40.671875 12.859375 48.328125 
Q 20.21875 56 33.015625 56 
Q 37.15625 56 41.109375 55.140625 
Q 45.0625 54.296875 48.78125 52.59375 
z
" id="DejaVuSans-63"/>
      <path d="M 56.203125 29.59375 
L 56.203125 25.203125 
L 14.890625 25.203125 
Q 15.484375 15.921875 20.484375 11.0625 
Q 25.484375 6.203125 34.421875 6.203125 
Q 39.59375 6.203125 44.453125 7.46875 
Q 49.3125 8.734375 54.109375 11.28125 
L 54.109375 2.78125 
Q 49.265625 0.734375 44.1875 -0.34375 
Q 39.109375 -1.421875 33.890625 -1.421875 
Q 20.796875 -1.421875 13.15625 6.1875 
Q 5.515625 13.8125 5.515625 26.8125 
Q 5.515625 40.234375 12.765625 48.109375 
Q 20.015625 56 32.328125 56 
Q 43.359375 56 49.78125 48.890625 
Q 56.203125 41.796875 56.203125 29.59375 
z
M 47.21875 32.234375 
Q 47.125 39.59375 43.09375 43.984375 
Q 39.0625 48.390625 32.421875 48.390625 
Q 24.90625 48.390625 20.390625 44.140625 
Q 15.875 39.890625 15.1875 32.171875 
z
" id="DejaVuSans-65"/>
      <path d="M 9.421875 75.984375 
L 18.40625 75.984375 
L 18.40625 0 
L 9.421875 0 
z
" id="DejaVuSans-6c"/>
      <path d="M 41.109375 46.296875 
Q 39.59375 47.171875 37.8125 47.578125 
Q 36.03125 48 33.890625 48 
Q 26.265625 48 22.1875 43.046875 
Q 18.109375 38.09375 18.109375 28.8125 
L 18.109375 0 
L 9.078125 0 
L 9.078125 54.6875 
L 18.109375 54.6875 
L 18.109375 46.1875 
Q 20.953125 51.171875 25.484375 53.578125 
Q 30.03125 56 36.53125 56 
Q 37.453125 56 38.578125 55.875 
Q 39.703125 55.765625 41.0625 55.515625 
z
" id="DejaVuSans-72"/>
      <path d="M 34.28125 27.484375 
Q 23.390625 27.484375 19.1875 25 
Q 14.984375 22.515625 14.984375 16.5 
Q 14.984375 11.71875 18.140625 8.90625 
Q 21.296875 6.109375 26.703125 6.109375 
Q 34.1875 6.109375 38.703125 11.40625 
Q 43.21875 16.703125 43.21875 25.484375 
L 43.21875 27.484375 
z
M 52.203125 31.203125 
L 52.203125 0 
L 43.21875 0 
L 43.21875 8.296875 
Q 40.140625 3.328125 35.546875 0.953125 
Q 30.953125 -1.421875 24.3125 -1.421875 
Q 15.921875 -1.421875 10.953125 3.296875 
Q 6 8.015625 6 15.921875 
Q 6 25.140625 12.171875 29.828125 
Q 18.359375 34.515625 30.609375 34.515625 
L 43.21875 34.515625 
L 43.21875 35.40625 
Q 43.21875 41.609375 39.140625 45 
Q 35.0625 48.390625 27.6875 48.390625 
Q 23 48.390625 18.546875 47.265625 
Q 14.109375 46.140625 10.015625 43.890625 
L 10.015625 52.203125 
Q 14.9375 54.109375 19.578125 55.046875 
Q 24.21875 56 28.609375 56 
Q 40.484375 56 46.34375 49.84375 
Q 52.203125 43.703125 52.203125 31.203125 
z
" id="DejaVuSans-61"/>
      <path d="M 18.3125 70.21875 
L 18.3125 54.6875 
L 36.8125 54.6875 
L 36.8125 47.703125 
L 18.3125 47.703125 
L 18.3125 18.015625 
Q 18.3125 11.328125 20.140625 9.421875 
Q 21.96875 7.515625 27.59375 7.515625 
L 36.8125 7.515625 
L 36.8125 0 
L 27.59375 0 
Q 17.1875 0 13.234375 3.875 
Q 9.28125 7.765625 9.28125 18.015625 
L 9.28125 47.703125 
L 2.6875 47.703125 
L 2.6875 54.6875 
L 9.28125 54.6875 
L 9.28125 70.21875 
z
" id="DejaVuSans-74"/>
      <path d="M 9.421875 54.6875 
L 18.40625 54.6875 
L 18.40625 0 
L 9.421875 0 
z
M 9.421875 75.984375 
L 18.40625 75.984375 
L 18.40625 64.59375 
L 9.421875 64.59375 
z
" id="DejaVuSans-69"/>
      <path d="M 30.609375 48.390625 
Q 23.390625 48.390625 19.1875 42.75 
Q 14.984375 37.109375 14.984375 27.296875 
Q 14.984375 17.484375 19.15625 11.84375 
Q 23.34375 6.203125 30.609375 6.203125 
Q 37.796875 6.203125 41.984375 11.859375 
Q 46.1875 17.53125 46.1875 27.296875 
Q 46.1875 37.015625 41.984375 42.703125 
Q 37.796875 48.390625 30.609375 48.390625 
z
M 30.609375 56 
Q 42.328125 56 49.015625 48.375 
Q 55.71875 40.765625 55.71875 27.296875 
Q 55.71875 13.875 49.015625 6.21875 
Q 42.328125 -1.421875 30.609375 -1.421875 
Q 18.84375 -1.421875 12.171875 6.21875 
Q 5.515625 13.875 5.515625 27.296875 
Q 5.515625 40.765625 12.171875 48.375 
Q 18.84375 56 30.609375 56 
z
" id="DejaVuSans-6f"/>
      <path d="M 54.890625 33.015625 
L 54.890625 0 
L 45.90625 0 
L 45.90625 32.71875 
Q 45.90625 40.484375 42.875 44.328125 
Q 39.84375 48.1875 33.796875 48.1875 
Q 26.515625 48.1875 22.3125 43.546875 
Q 18.109375 38.921875 18.109375 30.90625 
L 18.109375 0 
L 9.078125 0 
L 9.078125 54.6875 
L 18.109375 54.6875 
L 18.109375 46.1875 
Q 21.34375 51.125 25.703125 53.5625 
Q 30.078125 56 35.796875 56 
Q 45.21875 56 50.046875 50.171875 
Q 54.890625 44.34375 54.890625 33.015625 
z
" id="DejaVuSans-6e"/>
     </defs>
     <g transform="translate(20.2375 133.109031)rotate(-90)scale(0.1 -0.1)">
      <use xlink:href="#DejaVuSans-41"/>
      <use x="68.392578" xlink:href="#DejaVuSans-63"/>
      <use x="123.373047" xlink:href="#DejaVuSans-63"/>
      <use x="178.353516" xlink:href="#DejaVuSans-65"/>
      <use x="239.876953" xlink:href="#DejaVuSans-6c"/>
      <use x="267.660156" xlink:href="#DejaVuSans-65"/>
      <use x="329.183594" xlink:href="#DejaVuSans-72"/>
      <use x="370.296875" xlink:href="#DejaVuSans-61"/>
      <use x="431.576172" xlink:href="#DejaVuSans-74"/>
      <use x="470.785156" xlink:href="#DejaVuSans-69"/>
      <use x="498.568359" xlink:href="#DejaVuSans-6f"/>
      <use x="559.75" xlink:href="#DejaVuSans-6e"/>
     </g>
    </g>
   </g>
   <g id="line2d_11">
    <path clip-path="url(#p0d18adeb77)" d="M 64.978512 98.383553 
L 83.424793 112.84212 
L 101.871074 114.227924 
L 120.317355 113.280957 
L 138.763636 115.197986 
L 157.209917 114.505084 
L 175.656198 113.581216 
L 194.102479 107.599157 
L 212.54876 111.387024 
" style="fill:none;stroke:#ff0000;stroke-linecap:square;stroke-width:1.5;"/>
   </g>
   <g id="line2d_12">
    <path clip-path="url(#p0d18adeb77)" d="M 64.978512 98.383553 
L 83.424793 99.399812 
L 101.871074 99.630778 
L 120.317355 101.132068 
L 138.763636 104.273226 
L 157.209917 98.730005 
L 175.656198 96.374139 
L 194.102479 97.528976 
L 212.54876 98.475941 
" style="fill:none;stroke:#0000ff;stroke-linecap:square;stroke-width:1.5;"/>
   </g>
   <g id="line2d_13">
    <path clip-path="url(#p0d18adeb77)" d="M 64.978512 98.383553 
L 83.424793 72.561387 
L 101.871074 84.294537 
L 120.317355 88.42886 
L 138.763636 85.333889 
L 157.209917 88.174795 
L 175.656198 85.472468 
L 194.102479 88.174795 
L 212.54876 92.170531 
" style="fill:none;stroke:#008000;stroke-linecap:square;stroke-width:1.5;"/>
   </g>
   <g id="line2d_14">
    <path clip-path="url(#p0d18adeb77)" d="M 64.978512 98.383553 
L 83.424793 98.26807 
L 101.871074 104.273224 
L 120.317355 99.815551 
L 138.763636 97.667553 
L 157.209917 92.309107 
L 175.656198 88.197887 
" style="fill:none;stroke:#ff0000;stroke-linecap:square;stroke-width:1.5;"/>
   </g>
   <g id="line2d_15">
    <path clip-path="url(#p0d18adeb77)" d="M 64.978512 98.383553 
L 83.424793 98.591422 
L 101.871074 101.570903 
L 120.317355 103.741999 
L 138.763636 103.534128 
L 157.209917 102.240709 
L 175.656198 102.356195 
" style="fill:none;stroke:#0000ff;stroke-linecap:square;stroke-width:1.5;"/>
   </g>
   <g id="line2d_16">
    <path clip-path="url(#p0d18adeb77)" d="M 64.978512 98.383553 
L 83.424793 117.831025 
L 101.871074 117.461475 
L 120.317355 121.295537 
L 138.763636 125.499141 
L 157.209917 129.310106 
L 175.656198 136.285327 
" style="fill:none;stroke:#008000;stroke-linecap:square;stroke-width:1.5;"/>
   </g>
   <g id="line2d_17">
    <path clip-path="url(#p0d18adeb77)" d="M 64.978512 98.383553 
L 83.424793 95.84291 
L 101.871074 86.096081 
L 120.317355 84.779567 
L 138.763636 90.29969 
L 157.209917 87.66666 
L 175.656198 80.737635 
L 194.102479 80.737635 
L 212.54876 73.53145 
" style="fill:none;stroke:#ff0000;stroke-linecap:square;stroke-width:1.5;"/>
   </g>
   <g id="line2d_18">
    <path clip-path="url(#p0d18adeb77)" d="M 64.978512 98.383553 
L 83.424793 109.423799 
L 101.871074 107.668447 
L 120.317355 105.543545 
L 138.763636 102.956709 
L 157.209917 101.755678 
L 175.656198 100.854905 
L 194.102479 100.854905 
L 212.54876 100.831807 
" style="fill:none;stroke:#0000ff;stroke-linecap:square;stroke-width:1.5;"/>
   </g>
   <g id="line2d_19">
    <path clip-path="url(#p0d18adeb77)" d="M 64.978512 98.383553 
L 83.424793 133.860162 
L 101.871074 148.688279 
L 120.317355 126.261335 
L 138.763636 121.734368 
L 157.209917 123.027784 
L 175.656198 120.949081 
L 194.102479 120.949081 
L 212.54876 109.262127 
" style="fill:none;stroke:#008000;stroke-linecap:square;stroke-width:1.5;"/>
   </g>
   <g id="line2d_20">
    <path clip-path="url(#p0d18adeb77)" d="M 64.978512 98.383553 
L 83.424793 98.383553 
L 101.871074 99.815552 
L 120.317355 88.567434 
L 138.763636 88.798402 
L 157.209917 87.920726 
L 175.656198 73.693125 
L 194.102479 73.023321 
" style="fill:none;stroke:#ff0000;stroke-linecap:square;stroke-width:1.5;"/>
   </g>
   <g id="line2d_21">
    <path clip-path="url(#p0d18adeb77)" d="M 64.978512 98.383553 
L 83.424793 98.383553 
L 101.871074 98.568328 
L 120.317355 92.516978 
L 138.763636 89.999432 
L 157.209917 90.068724 
L 175.656198 88.290274 
L 194.102479 88.96008 
" style="fill:none;stroke:#0000ff;stroke-linecap:square;stroke-width:1.5;"/>
   </g>
   <g id="line2d_22">
    <path clip-path="url(#p0d18adeb77)" d="M 64.978512 98.383553 
L 83.424793 98.383553 
L 101.871074 93.025103 
L 120.317355 97.413491 
L 138.763636 94.018268 
L 157.209917 91.777882 
L 175.656198 89.283432 
L 194.102479 90.900203 
" style="fill:none;stroke:#008000;stroke-linecap:square;stroke-width:1.5;"/>
   </g>
   <g id="line2d_23">
    <path clip-path="url(#p0d18adeb77)" d="M 64.978512 98.383553 
L 83.424793 98.383553 
L 101.871074 94.549493 
L 120.317355 87.112339 
L 138.763636 90.553755 
L 157.209917 91.523818 
L 175.656198 78.012218 
L 194.102479 79.444218 
" style="fill:none;stroke:#ff0000;stroke-linecap:square;stroke-width:1.5;"/>
   </g>
   <g id="line2d_24">
    <path clip-path="url(#p0d18adeb77)" d="M 64.978512 98.383553 
L 83.424793 98.383553 
L 101.871074 101.386133 
L 120.317355 100.04652 
L 138.763636 97.944718 
L 157.209917 97.321103 
L 175.656198 97.944718 
L 194.102479 100.000328 
" style="fill:none;stroke:#0000ff;stroke-linecap:square;stroke-width:1.5;"/>
   </g>
   <g id="line2d_25">
    <path clip-path="url(#p0d18adeb77)" d="M 64.978512 98.383553 
L 83.424793 98.383553 
L 101.871074 121.919143 
L 120.317355 131.920037 
L 138.763636 122.2656 
L 157.209917 121.526499 
L 175.656198 126.908043 
L 194.102479 146.863635 
" style="fill:none;stroke:#008000;stroke-linecap:square;stroke-width:1.5;"/>
   </g>
   <g id="line2d_26">
    <path clip-path="url(#p0d18adeb77)" d="M 64.978512 98.383553 
L 83.424793 99.446003 
L 101.871074 97.48278 
L 120.317355 95.080718 
L 138.763636 95.080718 
L 157.209917 94.110655 
L 175.656198 97.713747 
L 194.102479 96.674395 
L 212.54876 89.999435 
" style="fill:none;stroke:#ff0000;stroke-linecap:square;stroke-width:1.5;"/>
   </g>
   <g id="line2d_27">
    <path clip-path="url(#p0d18adeb77)" d="M 64.978512 98.383553 
L 83.424793 95.126914 
L 101.871074 94.688074 
L 120.317355 97.436589 
L 138.763636 97.436589 
L 157.209917 96.004589 
L 175.656198 94.203043 
L 194.102479 94.203043 
L 212.54876 90.507564 
" style="fill:none;stroke:#0000ff;stroke-linecap:square;stroke-width:1.5;"/>
   </g>
   <g id="line2d_28">
    <path clip-path="url(#p0d18adeb77)" d="M 64.978512 98.383553 
L 83.424793 144.623249 
L 101.871074 144.877314 
L 120.317355 137.948289 
L 138.763636 137.948289 
L 157.209917 144.577058 
L 175.656198 146.863635 
L 194.102479 145.015898 
L 212.54876 156.933818 
" style="fill:none;stroke:#008000;stroke-linecap:square;stroke-width:1.5;"/>
   </g>
   <g id="line2d_29">
    <path clip-path="url(#p0d18adeb77)" d="M 64.978512 98.383553 
L 83.424793 124.067141 
L 101.871074 126.192041 
L 120.317355 129.933714 
L 138.763636 130.672812 
L 157.209917 126.284428 
L 175.656198 121.041464 
L 194.102479 111.617993 
" style="fill:none;stroke:#ff0000;stroke-linecap:square;stroke-width:1.5;"/>
   </g>
   <g id="line2d_30">
    <path clip-path="url(#p0d18adeb77)" d="M 64.978512 98.383553 
L 83.424793 107.576062 
L 101.871074 106.09787 
L 120.317355 102.148326 
L 138.763636 101.085876 
L 157.209917 101.594001 
L 175.656198 102.425484 
L 194.102479 106.860064 
" style="fill:none;stroke:#0000ff;stroke-linecap:square;stroke-width:1.5;"/>
   </g>
   <g id="line2d_31">
    <path clip-path="url(#p0d18adeb77)" d="M 64.978512 98.383553 
L 83.424793 46.970182 
L 101.871074 63.299588 
L 120.317355 81.384345 
L 138.763636 78.058411 
L 157.209917 84.155953 
L 175.656198 83.670922 
L 194.102479 89.930141 
" style="fill:none;stroke:#008000;stroke-linecap:square;stroke-width:1.5;"/>
   </g>
   <g id="line2d_32">
    <path clip-path="url(#p0d18adeb77)" d="M 64.978512 98.383553 
L 83.424793 98.383553 
L 101.871074 126.83875 
L 120.317355 112.564957 
L 138.763636 110.185993 
L 157.209917 112.54186 
L 175.656198 104.804449 
L 194.102479 102.009743 
" style="fill:none;stroke:#ff0000;stroke-linecap:square;stroke-width:1.5;"/>
   </g>
   <g id="line2d_33">
    <path clip-path="url(#p0d18adeb77)" d="M 64.978512 98.383553 
L 83.424793 98.383553 
L 101.871074 109.262124 
L 120.317355 109.400706 
L 138.763636 110.740316 
L 157.209917 109.146641 
L 175.656198 106.582901 
L 194.102479 103.972968 
" style="fill:none;stroke:#0000ff;stroke-linecap:square;stroke-width:1.5;"/>
   </g>
   <g id="line2d_34">
    <path clip-path="url(#p0d18adeb77)" d="M 64.978512 98.383553 
L 83.424793 98.383553 
L 101.871074 54.938563 
L 120.317355 61.382553 
L 138.763636 60.112239 
L 157.209917 50.365409 
L 175.656198 63.553649 
L 194.102479 71.591324 
" style="fill:none;stroke:#008000;stroke-linecap:square;stroke-width:1.5;"/>
   </g>
   <g id="line2d_35">
    <path clip-path="url(#p0d18adeb77)" d="M 64.978512 98.383553 
L 83.424793 116.214245 
L 101.871074 122.658239 
L 120.317355 111.895153 
L 138.763636 110.624831 
L 157.209917 105.682127 
L 175.656198 101.824969 
L 194.102479 101.455421 
" style="fill:none;stroke:#ff0000;stroke-linecap:square;stroke-width:1.5;"/>
   </g>
   <g id="line2d_36">
    <path clip-path="url(#p0d18adeb77)" d="M 64.978512 98.383553 
L 83.424793 101.963549 
L 101.871074 94.965235 
L 120.317355 93.718009 
L 138.763636 96.281749 
L 157.209917 99.168843 
L 175.656198 94.34162 
L 194.102479 92.84033 
" style="fill:none;stroke:#0000ff;stroke-linecap:square;stroke-width:1.5;"/>
   </g>
   <g id="line2d_37">
    <path clip-path="url(#p0d18adeb77)" d="M 64.978512 98.383553 
L 83.424793 84.779568 
L 101.871074 65.031845 
L 120.317355 78.19699 
L 138.763636 84.155953 
L 157.209917 90.553755 
L 175.656198 85.911312 
L 194.102479 84.895053 
" style="fill:none;stroke:#008000;stroke-linecap:square;stroke-width:1.5;"/>
   </g>
   <g id="line2d_38">
    <path clip-path="url(#p0d18adeb77)" d="M 64.978512 98.383553 
L 83.424793 112.333991 
L 101.871074 115.544439 
L 120.317355 121.041466 
L 138.763636 121.618885 
L 157.209917 117.854114 
L 175.656198 109.377608 
L 194.102479 105.889997 
L 212.54876 98.522132 
" style="fill:none;stroke:#ff0000;stroke-linecap:square;stroke-width:1.5;"/>
   </g>
   <g id="line2d_39">
    <path clip-path="url(#p0d18adeb77)" d="M 64.978512 98.383553 
L 83.424793 97.736845 
L 101.871074 94.272332 
L 120.317355 95.242395 
L 138.763636 96.304845 
L 157.209917 94.43401 
L 175.656198 93.279172 
L 194.102479 95.42717 
L 212.54876 95.011428 
" style="fill:none;stroke:#0000ff;stroke-linecap:square;stroke-width:1.5;"/>
   </g>
   <g id="line2d_40">
    <path clip-path="url(#p0d18adeb77)" d="M 64.978512 98.383553 
L 83.424793 67.918934 
L 101.871074 79.836859 
L 120.317355 100.439164 
L 138.763636 91.06188 
L 157.209917 93.879684 
L 175.656198 103.441738 
L 194.102479 105.381868 
L 212.54876 111.687278 
" style="fill:none;stroke:#008000;stroke-linecap:square;stroke-width:1.5;"/>
   </g>
   <g id="line2d_41">
    <path clip-path="url(#p0d18adeb77)" d="M 64.978512 98.383553 
L 83.424793 119.909726 
L 101.871074 119.909726 
L 120.317355 91.500721 
L 138.763636 77.226929 
L 157.209917 78.843702 
L 175.656198 69.6281 
L 194.102479 69.6281 
L 212.54876 69.69739 
" style="fill:none;stroke:#ff0000;stroke-linecap:square;stroke-width:1.5;"/>
   </g>
   <g id="line2d_42">
    <path clip-path="url(#p0d18adeb77)" d="M 64.978512 98.383553 
L 83.424793 104.896837 
L 101.871074 104.896837 
L 120.317355 114.34341 
L 138.763636 120.279272 
L 157.209917 123.605205 
L 175.656198 124.644557 
L 194.102479 124.644557 
L 212.54876 121.849851 
" style="fill:none;stroke:#0000ff;stroke-linecap:square;stroke-width:1.5;"/>
   </g>
   <g id="line2d_43">
    <path clip-path="url(#p0d18adeb77)" d="M 64.978512 98.383553 
L 83.424793 69.02758 
L 101.871074 69.02758 
L 120.317355 121.826751 
L 138.763636 109.446892 
L 157.209917 90.530653 
L 175.656198 91.870265 
L 194.102479 91.870265 
L 212.54876 105.10471 
" style="fill:none;stroke:#008000;stroke-linecap:square;stroke-width:1.5;"/>
   </g>
   <g id="line2d_44">
    <path clip-path="url(#p0d18adeb77)" d="M 64.978512 98.383553 
L 83.424793 98.383553 
L 101.871074 123.605208 
L 120.317355 121.942241 
L 138.763636 115.33657 
L 157.209917 112.957606 
L 175.656198 109.031158 
" style="fill:none;stroke:#ff0000;stroke-linecap:square;stroke-width:1.5;"/>
   </g>
   <g id="line2d_45">
    <path clip-path="url(#p0d18adeb77)" d="M 64.978512 98.383553 
L 83.424793 98.383553 
L 101.871074 102.471678 
L 120.317355 105.566643 
L 138.763636 105.058516 
L 157.209917 103.834387 
L 175.656198 108.615414 
" style="fill:none;stroke:#0000ff;stroke-linecap:square;stroke-width:1.5;"/>
   </g>
   <g id="line2d_46">
    <path clip-path="url(#p0d18adeb77)" d="M 64.978512 98.383553 
L 83.424793 98.383553 
L 101.871074 76.76499 
L 120.317355 78.266285 
L 138.763636 87.528078 
L 157.209917 84.802666 
L 175.656198 79.190151 
" style="fill:none;stroke:#008000;stroke-linecap:square;stroke-width:1.5;"/>
   </g>
   <g id="patch_3">
    <path d="M 57.6 162.432 
L 57.6 41.472 
" style="fill:none;stroke:#000000;stroke-linecap:square;stroke-linejoin:miter;stroke-width:0.8;"/>
   </g>
   <g id="patch_4">
    <path d="M 219.927273 162.432 
L 219.927273 41.472 
" style="fill:none;stroke:#000000;stroke-linecap:square;stroke-linejoin:miter;stroke-width:0.8;"/>
   </g>
   <g id="patch_5">
    <path d="M 57.6 162.432 
L 219.927273 162.432 
" style="fill:none;stroke:#000000;stroke-linecap:square;stroke-linejoin:miter;stroke-width:0.8;"/>
   </g>
   <g id="patch_6">
    <path d="M 57.6 41.472 
L 219.927273 41.472 
" style="fill:none;stroke:#000000;stroke-linecap:square;stroke-linejoin:miter;stroke-width:0.8;"/>
   </g>
   <g id="legend_1">
    <g id="patch_7">
     <path d="M 42.533168 54.054125 
L 238.994105 54.054125 
Q 240.994105 54.054125 240.994105 52.054125 
L 240.994105 38.376 
Q 240.994105 36.376 238.994105 36.376 
L 42.533168 36.376 
Q 40.533168 36.376 40.533168 38.376 
L 40.533168 52.054125 
Q 40.533168 54.054125 42.533168 54.054125 
z
" style="fill:#4c4c4c;opacity:0.5;stroke:#4c4c4c;stroke-linejoin:miter;"/>
    </g>
    <g id="patch_8">
     <path d="M 40.533168 52.054125 
L 236.994105 52.054125 
Q 238.994105 52.054125 238.994105 50.054125 
L 238.994105 36.376 
Q 238.994105 34.376 236.994105 34.376 
L 40.533168 34.376 
Q 38.533168 34.376 38.533168 36.376 
L 38.533168 50.054125 
Q 38.533168 52.054125 40.533168 52.054125 
z
" style="fill:#ffffff;opacity:0.8;stroke:#cccccc;stroke-linejoin:miter;"/>
    </g>
    <g id="line2d_47">
     <path d="M 42.533168 42.474438 
L 62.533168 42.474438 
" style="fill:none;stroke:#ff0000;stroke-linecap:square;stroke-width:1.5;"/>
    </g>
    <g id="line2d_48"/>
    <g id="text_12">
     <!-- accx -->
     <defs>
      <path d="M 54.890625 54.6875 
L 35.109375 28.078125 
L 55.90625 0 
L 45.3125 0 
L 29.390625 21.484375 
L 13.484375 0 
L 2.875 0 
L 24.125 28.609375 
L 4.6875 54.6875 
L 15.28125 54.6875 
L 29.78125 35.203125 
L 44.28125 54.6875 
z
" id="DejaVuSans-78"/>
     </defs>
     <g transform="translate(70.533168 45.974438)scale(0.1 -0.1)">
      <use xlink:href="#DejaVuSans-61"/>
      <use x="61.279297" xlink:href="#DejaVuSans-63"/>
      <use x="116.259766" xlink:href="#DejaVuSans-63"/>
      <use x="171.240234" xlink:href="#DejaVuSans-78"/>
     </g>
    </g>
    <g id="line2d_49">
     <path d="M 113.576918 42.474438 
L 133.576918 42.474438 
" style="fill:none;stroke:#0000ff;stroke-linecap:square;stroke-width:1.5;"/>
    </g>
    <g id="line2d_50"/>
    <g id="text_13">
     <!-- accy -->
     <defs>
      <path d="M 32.171875 -5.078125 
Q 28.375 -14.84375 24.75 -17.8125 
Q 21.140625 -20.796875 15.09375 -20.796875 
L 7.90625 -20.796875 
L 7.90625 -13.28125 
L 13.1875 -13.28125 
Q 16.890625 -13.28125 18.9375 -11.515625 
Q 21 -9.765625 23.484375 -3.21875 
L 25.09375 0.875 
L 2.984375 54.6875 
L 12.5 54.6875 
L 29.59375 11.921875 
L 46.6875 54.6875 
L 56.203125 54.6875 
z
" id="DejaVuSans-79"/>
     </defs>
     <g transform="translate(141.576918 45.974438)scale(0.1 -0.1)">
      <use xlink:href="#DejaVuSans-61"/>
      <use x="61.279297" xlink:href="#DejaVuSans-63"/>
      <use x="116.259766" xlink:href="#DejaVuSans-63"/>
      <use x="171.240234" xlink:href="#DejaVuSans-79"/>
     </g>
    </g>
    <g id="line2d_51">
     <path d="M 184.620668 42.474438 
L 204.620668 42.474438 
" style="fill:none;stroke:#008000;stroke-linecap:square;stroke-width:1.5;"/>
    </g>
    <g id="line2d_52"/>
    <g id="text_14">
     <!-- accz -->
     <defs>
      <path d="M 5.515625 54.6875 
L 48.1875 54.6875 
L 48.1875 46.484375 
L 14.40625 7.171875 
L 48.1875 7.171875 
L 48.1875 0 
L 4.296875 0 
L 4.296875 8.203125 
L 38.09375 47.515625 
L 5.515625 47.515625 
z
" id="DejaVuSans-7a"/>
     </defs>
     <g transform="translate(212.620668 45.974438)scale(0.1 -0.1)">
      <use xlink:href="#DejaVuSans-61"/>
      <use x="61.279297" xlink:href="#DejaVuSans-63"/>
      <use x="116.259766" xlink:href="#DejaVuSans-63"/>
      <use x="171.240234" xlink:href="#DejaVuSans-7a"/>
     </g>
    </g>
   </g>
  </g>
  <g id="axes_2">
   <g id="patch_9">
    <path d="M 252.392727 162.432 
L 414.72 162.432 
L 414.72 41.472 
L 252.392727 41.472 
z
" style="fill:#ffffff;"/>
   </g>
   <g id="matplotlib.axis_3">
    <g id="xtick_6">
     <g id="line2d_53">
      <g>
       <use style="stroke:#000000;stroke-width:0.8;" x="259.77124" xlink:href="#m2b962dcb1a" y="162.432"/>
      </g>
     </g>
     <g id="text_15">
      <!-- 0 -->
      <g transform="translate(256.58999 177.030437)scale(0.1 -0.1)">
       <use xlink:href="#DejaVuSans-30"/>
      </g>
     </g>
    </g>
    <g id="xtick_7">
     <g id="line2d_54">
      <g>
       <use style="stroke:#000000;stroke-width:0.8;" x="296.663802" xlink:href="#m2b962dcb1a" y="162.432"/>
      </g>
     </g>
     <g id="text_16">
      <!-- 2 -->
      <g transform="translate(293.482552 177.030437)scale(0.1 -0.1)">
       <use xlink:href="#DejaVuSans-32"/>
      </g>
     </g>
    </g>
    <g id="xtick_8">
     <g id="line2d_55">
      <g>
       <use style="stroke:#000000;stroke-width:0.8;" x="333.556364" xlink:href="#m2b962dcb1a" y="162.432"/>
      </g>
     </g>
     <g id="text_17">
      <!-- 4 -->
      <g transform="translate(330.375114 177.030437)scale(0.1 -0.1)">
       <use xlink:href="#DejaVuSans-34"/>
      </g>
     </g>
    </g>
    <g id="xtick_9">
     <g id="line2d_56">
      <g>
       <use style="stroke:#000000;stroke-width:0.8;" x="370.448926" xlink:href="#m2b962dcb1a" y="162.432"/>
      </g>
     </g>
     <g id="text_18">
      <!-- 6 -->
      <g transform="translate(367.267676 177.030437)scale(0.1 -0.1)">
       <use xlink:href="#DejaVuSans-36"/>
      </g>
     </g>
    </g>
    <g id="xtick_10">
     <g id="line2d_57">
      <g>
       <use style="stroke:#000000;stroke-width:0.8;" x="407.341488" xlink:href="#m2b962dcb1a" y="162.432"/>
      </g>
     </g>
     <g id="text_19">
      <!-- 8 -->
      <g transform="translate(404.160238 177.030437)scale(0.1 -0.1)">
       <use xlink:href="#DejaVuSans-38"/>
      </g>
     </g>
    </g>
   </g>
   <g id="matplotlib.axis_4">
    <g id="ytick_6">
     <g id="line2d_58">
      <g>
       <use style="stroke:#000000;stroke-width:0.8;" x="252.392727" xlink:href="#m76bf7268ca" y="145.595022"/>
      </g>
     </g>
     <g id="text_20">
      <!-- −2 -->
      <g transform="translate(230.65054 149.39424)scale(0.1 -0.1)">
       <use xlink:href="#DejaVuSans-2212"/>
       <use x="83.789062" xlink:href="#DejaVuSans-32"/>
      </g>
     </g>
    </g>
    <g id="ytick_7">
     <g id="line2d_59">
      <g>
       <use style="stroke:#000000;stroke-width:0.8;" x="252.392727" xlink:href="#m76bf7268ca" y="119.315336"/>
      </g>
     </g>
     <g id="text_21">
      <!-- −1 -->
      <defs>
       <path d="M 12.40625 8.296875 
L 28.515625 8.296875 
L 28.515625 63.921875 
L 10.984375 60.40625 
L 10.984375 69.390625 
L 28.421875 72.90625 
L 38.28125 72.90625 
L 38.28125 8.296875 
L 54.390625 8.296875 
L 54.390625 0 
L 12.40625 0 
z
" id="DejaVuSans-31"/>
      </defs>
      <g transform="translate(230.65054 123.114555)scale(0.1 -0.1)">
       <use xlink:href="#DejaVuSans-2212"/>
       <use x="83.789062" xlink:href="#DejaVuSans-31"/>
      </g>
     </g>
    </g>
    <g id="ytick_8">
     <g id="line2d_60">
      <g>
       <use style="stroke:#000000;stroke-width:0.8;" x="252.392727" xlink:href="#m76bf7268ca" y="93.03565"/>
      </g>
     </g>
     <g id="text_22">
      <!-- 0 -->
      <g transform="translate(239.030227 96.834869)scale(0.1 -0.1)">
       <use xlink:href="#DejaVuSans-30"/>
      </g>
     </g>
    </g>
    <g id="ytick_9">
     <g id="line2d_61">
      <g>
       <use style="stroke:#000000;stroke-width:0.8;" x="252.392727" xlink:href="#m76bf7268ca" y="66.755965"/>
      </g>
     </g>
     <g id="text_23">
      <!-- 1 -->
      <g transform="translate(239.030227 70.555183)scale(0.1 -0.1)">
       <use xlink:href="#DejaVuSans-31"/>
      </g>
     </g>
    </g>
    <g id="text_24">
     <!-- Rotation -->
     <defs>
      <path d="M 44.390625 34.1875 
Q 47.5625 33.109375 50.5625 29.59375 
Q 53.5625 26.078125 56.59375 19.921875 
L 66.609375 0 
L 56 0 
L 46.6875 18.703125 
Q 43.0625 26.03125 39.671875 28.421875 
Q 36.28125 30.8125 30.421875 30.8125 
L 19.671875 30.8125 
L 19.671875 0 
L 9.8125 0 
L 9.8125 72.90625 
L 32.078125 72.90625 
Q 44.578125 72.90625 50.734375 67.671875 
Q 56.890625 62.453125 56.890625 51.90625 
Q 56.890625 45.015625 53.6875 40.46875 
Q 50.484375 35.9375 44.390625 34.1875 
z
M 19.671875 64.796875 
L 19.671875 38.921875 
L 32.078125 38.921875 
Q 39.203125 38.921875 42.84375 42.21875 
Q 46.484375 45.515625 46.484375 51.90625 
Q 46.484375 58.296875 42.84375 61.546875 
Q 39.203125 64.796875 32.078125 64.796875 
z
" id="DejaVuSans-52"/>
     </defs>
     <g transform="translate(224.570852 123.084031)rotate(-90)scale(0.1 -0.1)">
      <use xlink:href="#DejaVuSans-52"/>
      <use x="69.419922" xlink:href="#DejaVuSans-6f"/>
      <use x="130.601562" xlink:href="#DejaVuSans-74"/>
      <use x="169.810547" xlink:href="#DejaVuSans-61"/>
      <use x="231.089844" xlink:href="#DejaVuSans-74"/>
      <use x="270.298828" xlink:href="#DejaVuSans-69"/>
      <use x="298.082031" xlink:href="#DejaVuSans-6f"/>
      <use x="359.263672" xlink:href="#DejaVuSans-6e"/>
     </g>
    </g>
   </g>
   <g id="line2d_62">
    <path clip-path="url(#pffe5f95b89)" d="M 259.77124 93.03565 
L 278.217521 91.006026 
L 296.663802 85.743001 
L 315.110083 83.461424 
L 333.556364 85.127115 
L 352.002645 86.596843 
L 370.448926 89.466312 
L 388.895207 89.998213 
L 407.341488 90.390141 
" style="fill:none;stroke:#ff0000;stroke-linecap:square;stroke-width:1.5;"/>
   </g>
   <g id="line2d_63">
    <path clip-path="url(#pffe5f95b89)" d="M 259.77124 93.03565 
L 278.217521 82.369626 
L 296.663802 82.523597 
L 315.110083 83.671385 
L 333.556364 83.713377 
L 352.002645 87.548667 
L 370.448926 87.730633 
L 388.895207 87.492677 
L 407.341488 83.125486 
" style="fill:none;stroke:#0000ff;stroke-linecap:square;stroke-width:1.5;"/>
   </g>
   <g id="line2d_64">
    <path clip-path="url(#pffe5f95b89)" d="M 259.77124 93.03565 
L 278.217521 94.86931 
L 296.663802 92.069829 
L 315.110083 88.402509 
L 333.556364 88.192547 
L 352.002645 86.680827 
L 370.448926 83.671385 
L 388.895207 82.13167 
L 407.341488 81.445797 
" style="fill:none;stroke:#008000;stroke-linecap:square;stroke-width:1.5;"/>
   </g>
   <g id="line2d_65">
    <path clip-path="url(#pffe5f95b89)" d="M 259.77124 93.03565 
L 278.217521 93.03565 
L 296.663802 94.407396 
L 315.110083 96.465015 
L 333.556364 96.17107 
L 352.002645 96.646981 
L 370.448926 98.32667 
" style="fill:none;stroke:#ff0000;stroke-linecap:square;stroke-width:1.5;"/>
   </g>
   <g id="line2d_66">
    <path clip-path="url(#pffe5f95b89)" d="M 259.77124 93.03565 
L 278.217521 93.03565 
L 296.663802 106.529151 
L 315.110083 112.100118 
L 333.556364 117.22317 
L 352.002645 116.075382 
L 370.448926 111.218282 
" style="fill:none;stroke:#0000ff;stroke-linecap:square;stroke-width:1.5;"/>
   </g>
   <g id="line2d_67">
    <path clip-path="url(#pffe5f95b89)" d="M 259.77124 93.03565 
L 278.217521 93.03565 
L 296.663802 91.761886 
L 315.110083 89.25635 
L 333.556364 84.385252 
L 352.002645 82.607581 
L 370.448926 80.94189 
" style="fill:none;stroke:#008000;stroke-linecap:square;stroke-width:1.5;"/>
   </g>
   <g id="line2d_68">
    <path clip-path="url(#pffe5f95b89)" d="M 259.77124 93.03565 
L 278.217521 93.03565 
L 296.663802 89.298342 
L 315.110083 101.742037 
L 333.556364 103.61769 
L 352.002645 100.006359 
L 370.448926 94.589362 
L 388.895207 90.544112 
L 407.341488 86.55485 
" style="fill:none;stroke:#ff0000;stroke-linecap:square;stroke-width:1.5;"/>
   </g>
   <g id="line2d_69">
    <path clip-path="url(#pffe5f95b89)" d="M 259.77124 93.03565 
L 278.217521 93.03565 
L 296.663802 102.945815 
L 315.110083 105.605322 
L 333.556364 109.496601 
L 352.002645 111.386251 
L 370.448926 113.485863 
L 388.895207 113.093935 
L 407.341488 113.737816 
" style="fill:none;stroke:#0000ff;stroke-linecap:square;stroke-width:1.5;"/>
   </g>
   <g id="line2d_70">
    <path clip-path="url(#pffe5f95b89)" d="M 259.77124 93.03565 
L 278.217521 93.03565 
L 296.663802 87.968589 
L 315.110083 89.004397 
L 333.556364 92.321782 
L 352.002645 90.712081 
L 370.448926 87.002768 
L 388.895207 87.478679 
L 407.341488 88.752444 
" style="fill:none;stroke:#008000;stroke-linecap:square;stroke-width:1.5;"/>
   </g>
   <g id="line2d_71">
    <path clip-path="url(#pffe5f95b89)" d="M 259.77124 93.03565 
L 278.217521 104.48553 
L 296.663802 104.48553 
L 315.110083 113.835797 
L 333.556364 114.68964 
L 352.002645 114.605655 
L 370.448926 115.361515 
L 388.895207 114.773624 
" style="fill:none;stroke:#ff0000;stroke-linecap:square;stroke-width:1.5;"/>
   </g>
   <g id="line2d_72">
    <path clip-path="url(#pffe5f95b89)" d="M 259.77124 93.03565 
L 278.217521 113.905788 
L 296.663802 113.905788 
L 315.110083 144.462127 
L 333.556364 147.3036 
L 352.002645 149.977106 
L 370.448926 156.933818 
L 388.895207 156.835836 
" style="fill:none;stroke:#0000ff;stroke-linecap:square;stroke-width:1.5;"/>
   </g>
   <g id="line2d_73">
    <path clip-path="url(#pffe5f95b89)" d="M 259.77124 93.03565 
L 278.217521 91.621912 
L 296.663802 91.621912 
L 315.110083 90.418135 
L 333.556364 89.340335 
L 352.002645 88.108563 
L 370.448926 87.688641 
L 388.895207 88.724449 
" style="fill:none;stroke:#008000;stroke-linecap:square;stroke-width:1.5;"/>
   </g>
   <g id="line2d_74">
    <path clip-path="url(#pffe5f95b89)" d="M 259.77124 93.03565 
L 278.217521 85.113118 
L 296.663802 87.282716 
L 315.110083 87.282716 
L 333.556364 91.341964 
L 352.002645 85.323079 
L 370.448926 80.423986 
L 388.895207 80.423986 
" style="fill:none;stroke:#ff0000;stroke-linecap:square;stroke-width:1.5;"/>
   </g>
   <g id="line2d_75">
    <path clip-path="url(#pffe5f95b89)" d="M 259.77124 93.03565 
L 278.217521 125.537631 
L 296.663802 130.422726 
L 315.110083 130.422726 
L 333.556364 133.376179 
L 352.002645 135.307822 
L 370.448926 140.836798 
L 388.895207 140.836798 
" style="fill:none;stroke:#0000ff;stroke-linecap:square;stroke-width:1.5;"/>
   </g>
   <g id="line2d_76">
    <path clip-path="url(#pffe5f95b89)" d="M 259.77124 93.03565 
L 278.217521 88.108563 
L 296.663802 86.93278 
L 315.110083 86.93278 
L 333.556364 88.136557 
L 352.002645 86.162923 
L 370.448926 85.882975 
L 388.895207 85.882975 
" style="fill:none;stroke:#008000;stroke-linecap:square;stroke-width:1.5;"/>
   </g>
   <g id="line2d_77">
    <path clip-path="url(#pffe5f95b89)" d="M 259.77124 93.03565 
L 278.217521 93.03565 
L 296.663802 98.396658 
L 315.110083 104.91945 
L 333.556364 101.182142 
L 352.002645 99.054536 
L 370.448926 99.922375 
L 388.895207 98.508637 
L 407.341488 99.082531 
" style="fill:none;stroke:#ff0000;stroke-linecap:square;stroke-width:1.5;"/>
   </g>
   <g id="line2d_78">
    <path clip-path="url(#pffe5f95b89)" d="M 259.77124 93.03565 
L 278.217521 93.03565 
L 296.663802 110.938334 
L 315.110083 115.319522 
L 333.556364 117.699082 
L 352.002645 120.106635 
L 370.448926 122.4582 
L 388.895207 124.627799 
L 407.341488 117.517115 
" style="fill:none;stroke:#0000ff;stroke-linecap:square;stroke-width:1.5;"/>
   </g>
   <g id="line2d_79">
    <path clip-path="url(#pffe5f95b89)" d="M 259.77124 93.03565 
L 278.217521 93.03565 
L 296.663802 91.649907 
L 315.110083 90.474125 
L 333.556364 87.814617 
L 352.002645 86.904786 
L 370.448926 86.190918 
L 388.895207 82.999509 
L 407.341488 79.486159 
" style="fill:none;stroke:#008000;stroke-linecap:square;stroke-width:1.5;"/>
   </g>
   <g id="line2d_80">
    <path clip-path="url(#pffe5f95b89)" d="M 259.77124 93.03565 
L 278.217521 62.815246 
L 296.663802 57.734187 
L 315.110083 66.706526 
L 333.556364 68.232243 
L 352.002645 67.910303 
L 370.448926 67.910303 
L 388.895207 66.202619 
" style="fill:none;stroke:#ff0000;stroke-linecap:square;stroke-width:1.5;"/>
   </g>
   <g id="line2d_81">
    <path clip-path="url(#pffe5f95b89)" d="M 259.77124 93.03565 
L 278.217521 94.11345 
L 296.663802 95.527189 
L 315.110083 100.440279 
L 333.556364 109.72056 
L 352.002645 111.400249 
L 370.448926 111.400249 
L 388.895207 110.238464 
" style="fill:none;stroke:#0000ff;stroke-linecap:square;stroke-width:1.5;"/>
   </g>
   <g id="line2d_82">
    <path clip-path="url(#pffe5f95b89)" d="M 259.77124 93.03565 
L 278.217521 89.410322 
L 296.663802 88.416506 
L 315.110083 88.374514 
L 333.556364 81.977699 
L 352.002645 78.114414 
L 370.448926 78.114414 
L 388.895207 74.377106 
" style="fill:none;stroke:#008000;stroke-linecap:square;stroke-width:1.5;"/>
   </g>
   <g id="line2d_83">
    <path clip-path="url(#pffe5f95b89)" d="M 259.77124 93.03565 
L 278.217521 98.830578 
L 296.663802 98.830578 
L 315.110083 87.072755 
L 333.556364 82.551592 
L 352.002645 81.571774 
L 370.448926 76.910637 
L 388.895207 74.601065 
" style="fill:none;stroke:#ff0000;stroke-linecap:square;stroke-width:1.5;"/>
   </g>
   <g id="line2d_84">
    <path clip-path="url(#pffe5f95b89)" d="M 259.77124 93.03565 
L 278.217521 46.970182 
L 296.663802 46.970182 
L 315.110083 53.059055 
L 333.556364 63.095195 
L 352.002645 67.252425 
L 370.448926 80.591955 
L 388.895207 84.217283 
" style="fill:none;stroke:#0000ff;stroke-linecap:square;stroke-width:1.5;"/>
   </g>
   <g id="line2d_85">
    <path clip-path="url(#pffe5f95b89)" d="M 259.77124 93.03565 
L 278.217521 94.057461 
L 296.663802 94.057461 
L 315.110083 80.801915 
L 333.556364 81.557775 
L 352.002645 84.6652 
L 370.448926 87.716635 
L 388.895207 90.040205 
" style="fill:none;stroke:#008000;stroke-linecap:square;stroke-width:1.5;"/>
   </g>
   <g id="line2d_86">
    <path clip-path="url(#pffe5f95b89)" d="M 259.77124 93.03565 
L 278.217521 97.024911 
L 296.663802 92.139816 
L 315.110083 92.139816 
L 333.556364 97.430836 
L 352.002645 97.430836 
L 370.448926 103.701675 
L 388.895207 104.69549 
" style="fill:none;stroke:#ff0000;stroke-linecap:square;stroke-width:1.5;"/>
   </g>
   <g id="line2d_87">
    <path clip-path="url(#pffe5f95b89)" d="M 259.77124 93.03565 
L 278.217521 103.645686 
L 296.663802 125.159701 
L 315.110083 125.159701 
L 333.556364 144.420134 
L 352.002645 144.420134 
L 370.448926 150.131076 
L 388.895207 148.997286 
" style="fill:none;stroke:#0000ff;stroke-linecap:square;stroke-width:1.5;"/>
   </g>
   <g id="line2d_88">
    <path clip-path="url(#pffe5f95b89)" d="M 259.77124 93.03565 
L 278.217521 94.253424 
L 296.663802 86.050944 
L 315.110083 86.050944 
L 333.556364 83.96533 
L 352.002645 83.96533 
L 370.448926 86.274903 
L 388.895207 87.464682 
" style="fill:none;stroke:#008000;stroke-linecap:square;stroke-width:1.5;"/>
   </g>
   <g id="line2d_89">
    <path clip-path="url(#pffe5f95b89)" d="M 259.77124 93.03565 
L 278.217521 68.918118 
L 296.663802 56.222468 
L 315.110083 61.107564 
L 333.556364 61.107564 
L 352.002645 63.473126 
L 370.448926 57.776181 
L 388.895207 56.796362 
L 407.341488 55.956518 
" style="fill:none;stroke:#ff0000;stroke-linecap:square;stroke-width:1.5;"/>
   </g>
   <g id="line2d_90">
    <path clip-path="url(#pffe5f95b89)" d="M 259.77124 93.03565 
L 278.217521 92.587733 
L 296.663802 105.199397 
L 315.110083 109.846536 
L 333.556364 109.846536 
L 352.002645 115.389511 
L 370.448926 113.737817 
L 388.895207 110.868347 
L 407.341488 103.449721 
" style="fill:none;stroke:#0000ff;stroke-linecap:square;stroke-width:1.5;"/>
   </g>
   <g id="line2d_91">
    <path clip-path="url(#pffe5f95b89)" d="M 259.77124 93.03565 
L 278.217521 92.447759 
L 296.663802 89.438317 
L 315.110083 88.55648 
L 333.556364 88.55648 
L 352.002645 84.525226 
L 370.448926 78.772292 
L 388.895207 77.120597 
L 407.341488 77.848463 
" style="fill:none;stroke:#008000;stroke-linecap:square;stroke-width:1.5;"/>
   </g>
   <g id="line2d_92">
    <path clip-path="url(#pffe5f95b89)" d="M 259.77124 93.03565 
L 278.217521 93.03565 
L 296.663802 78.78629 
L 315.110083 88.654462 
L 333.556364 95.639168 
L 352.002645 93.679531 
L 370.448926 82.467608 
L 388.895207 76.812655 
L 407.341488 69.520005 
" style="fill:none;stroke:#ff0000;stroke-linecap:square;stroke-width:1.5;"/>
   </g>
   <g id="line2d_93">
    <path clip-path="url(#pffe5f95b89)" d="M 259.77124 93.03565 
L 278.217521 93.03565 
L 296.663802 122.598176 
L 315.110083 132.424357 
L 333.556364 132.99825 
L 352.002645 138.373254 
L 370.448926 138.821172 
L 388.895207 138.191288 
L 407.341488 139.745 
" style="fill:none;stroke:#0000ff;stroke-linecap:square;stroke-width:1.5;"/>
   </g>
   <g id="line2d_94">
    <path clip-path="url(#pffe5f95b89)" d="M 259.77124 93.03565 
L 278.217521 93.03565 
L 296.663802 67.33641 
L 315.110083 56.614397 
L 333.556364 60.085753 
L 352.002645 66.538559 
L 370.448926 69.310046 
L 388.895207 71.885568 
L 407.341488 76.770664 
" style="fill:none;stroke:#008000;stroke-linecap:square;stroke-width:1.5;"/>
   </g>
   <g id="line2d_95">
    <path clip-path="url(#pffe5f95b89)" d="M 259.77124 93.03565 
L 278.217521 93.03565 
L 296.663802 102.399916 
L 315.110083 102.399916 
L 333.556364 102.959813 
L 352.002645 115.263533 
L 370.448926 118.440946 
" style="fill:none;stroke:#ff0000;stroke-linecap:square;stroke-width:1.5;"/>
   </g>
   <g id="line2d_96">
    <path clip-path="url(#pffe5f95b89)" d="M 259.77124 93.03565 
L 278.217521 93.03565 
L 296.663802 81.64176 
L 315.110083 81.64176 
L 333.556364 89.25635 
L 352.002645 98.774588 
L 370.448926 100.482271 
" style="fill:none;stroke:#0000ff;stroke-linecap:square;stroke-width:1.5;"/>
   </g>
   <g id="line2d_97">
    <path clip-path="url(#pffe5f95b89)" d="M 259.77124 93.03565 
L 278.217521 93.03565 
L 296.663802 92.265793 
L 315.110083 92.265793 
L 333.556364 88.626467 
L 352.002645 86.372884 
L 370.448926 84.903156 
" style="fill:none;stroke:#008000;stroke-linecap:square;stroke-width:1.5;"/>
   </g>
   <g id="patch_10">
    <path d="M 252.392727 162.432 
L 252.392727 41.472 
" style="fill:none;stroke:#000000;stroke-linecap:square;stroke-linejoin:miter;stroke-width:0.8;"/>
   </g>
   <g id="patch_11">
    <path d="M 414.72 162.432 
L 414.72 41.472 
" style="fill:none;stroke:#000000;stroke-linecap:square;stroke-linejoin:miter;stroke-width:0.8;"/>
   </g>
   <g id="patch_12">
    <path d="M 252.392727 162.432 
L 414.72 162.432 
" style="fill:none;stroke:#000000;stroke-linecap:square;stroke-linejoin:miter;stroke-width:0.8;"/>
   </g>
   <g id="patch_13">
    <path d="M 252.392727 41.472 
L 414.72 41.472 
" style="fill:none;stroke:#000000;stroke-linecap:square;stroke-linejoin:miter;stroke-width:0.8;"/>
   </g>
   <g id="legend_2">
    <g id="patch_14">
     <path d="M 241.793082 54.054125 
L 429.319645 54.054125 
Q 431.319645 54.054125 431.319645 52.054125 
L 431.319645 38.376 
Q 431.319645 36.376 429.319645 36.376 
L 241.793082 36.376 
Q 239.793082 36.376 239.793082 38.376 
L 239.793082 52.054125 
Q 239.793082 54.054125 241.793082 54.054125 
z
" style="fill:#4c4c4c;opacity:0.5;stroke:#4c4c4c;stroke-linejoin:miter;"/>
    </g>
    <g id="patch_15">
     <path d="M 239.793082 52.054125 
L 427.319645 52.054125 
Q 429.319645 52.054125 429.319645 50.054125 
L 429.319645 36.376 
Q 429.319645 34.376 427.319645 34.376 
L 239.793082 34.376 
Q 237.793082 34.376 237.793082 36.376 
L 237.793082 50.054125 
Q 237.793082 52.054125 239.793082 52.054125 
z
" style="fill:#ffffff;opacity:0.8;stroke:#cccccc;stroke-linejoin:miter;"/>
    </g>
    <g id="line2d_98">
     <path d="M 241.793082 42.474438 
L 261.793082 42.474438 
" style="fill:none;stroke:#ff0000;stroke-linecap:square;stroke-width:1.5;"/>
    </g>
    <g id="line2d_99"/>
    <g id="text_25">
     <!-- rotx -->
     <g transform="translate(269.793082 45.974438)scale(0.1 -0.1)">
      <use xlink:href="#DejaVuSans-72"/>
      <use x="41.082031" xlink:href="#DejaVuSans-6f"/>
      <use x="102.263672" xlink:href="#DejaVuSans-74"/>
      <use x="141.472656" xlink:href="#DejaVuSans-78"/>
     </g>
    </g>
    <g id="line2d_100">
     <path d="M 309.858707 42.474438 
L 329.858707 42.474438 
" style="fill:none;stroke:#0000ff;stroke-linecap:square;stroke-width:1.5;"/>
    </g>
    <g id="line2d_101"/>
    <g id="text_26">
     <!-- roty -->
     <g transform="translate(337.858707 45.974438)scale(0.1 -0.1)">
      <use xlink:href="#DejaVuSans-72"/>
      <use x="41.082031" xlink:href="#DejaVuSans-6f"/>
      <use x="102.263672" xlink:href="#DejaVuSans-74"/>
      <use x="141.472656" xlink:href="#DejaVuSans-79"/>
     </g>
    </g>
    <g id="line2d_102">
     <path d="M 377.924332 42.474438 
L 397.924332 42.474438 
" style="fill:none;stroke:#008000;stroke-linecap:square;stroke-width:1.5;"/>
    </g>
    <g id="line2d_103"/>
    <g id="text_27">
     <!-- rotz -->
     <g transform="translate(405.924332 45.974438)scale(0.1 -0.1)">
      <use xlink:href="#DejaVuSans-72"/>
      <use x="41.082031" xlink:href="#DejaVuSans-6f"/>
      <use x="102.263672" xlink:href="#DejaVuSans-74"/>
      <use x="141.472656" xlink:href="#DejaVuSans-7a"/>
     </g>
    </g>
   </g>
  </g>
  <g id="axes_3">
   <g id="patch_16">
    <path d="M 57.6 307.584 
L 219.927273 307.584 
L 219.927273 186.624 
L 57.6 186.624 
z
" style="fill:#ffffff;"/>
   </g>
   <g id="matplotlib.axis_5">
    <g id="xtick_11">
     <g id="line2d_104">
      <g>
       <use style="stroke:#000000;stroke-width:0.8;" x="64.978512" xlink:href="#m2b962dcb1a" y="307.584"/>
      </g>
     </g>
     <g id="text_28">
      <!-- 0 -->
      <g transform="translate(61.797262 322.182437)scale(0.1 -0.1)">
       <use xlink:href="#DejaVuSans-30"/>
      </g>
     </g>
    </g>
    <g id="xtick_12">
     <g id="line2d_105">
      <g>
       <use style="stroke:#000000;stroke-width:0.8;" x="101.871074" xlink:href="#m2b962dcb1a" y="307.584"/>
      </g>
     </g>
     <g id="text_29">
      <!-- 2 -->
      <g transform="translate(98.689824 322.182437)scale(0.1 -0.1)">
       <use xlink:href="#DejaVuSans-32"/>
      </g>
     </g>
    </g>
    <g id="xtick_13">
     <g id="line2d_106">
      <g>
       <use style="stroke:#000000;stroke-width:0.8;" x="138.763636" xlink:href="#m2b962dcb1a" y="307.584"/>
      </g>
     </g>
     <g id="text_30">
      <!-- 4 -->
      <g transform="translate(135.582386 322.182437)scale(0.1 -0.1)">
       <use xlink:href="#DejaVuSans-34"/>
      </g>
     </g>
    </g>
    <g id="xtick_14">
     <g id="line2d_107">
      <g>
       <use style="stroke:#000000;stroke-width:0.8;" x="175.656198" xlink:href="#m2b962dcb1a" y="307.584"/>
      </g>
     </g>
     <g id="text_31">
      <!-- 6 -->
      <g transform="translate(172.474948 322.182437)scale(0.1 -0.1)">
       <use xlink:href="#DejaVuSans-36"/>
      </g>
     </g>
    </g>
    <g id="xtick_15">
     <g id="line2d_108">
      <g>
       <use style="stroke:#000000;stroke-width:0.8;" x="212.54876" xlink:href="#m2b962dcb1a" y="307.584"/>
      </g>
     </g>
     <g id="text_32">
      <!-- 8 -->
      <g transform="translate(209.36751 322.182437)scale(0.1 -0.1)">
       <use xlink:href="#DejaVuSans-38"/>
      </g>
     </g>
    </g>
   </g>
   <g id="matplotlib.axis_6">
    <g id="ytick_10">
     <g id="line2d_109">
      <g>
       <use style="stroke:#000000;stroke-width:0.8;" x="57.6" xlink:href="#m76bf7268ca" y="301.998005"/>
      </g>
     </g>
     <g id="text_33">
      <!-- −0.075 -->
      <defs>
       <path d="M 8.203125 72.90625 
L 55.078125 72.90625 
L 55.078125 68.703125 
L 28.609375 0 
L 18.3125 0 
L 43.21875 64.59375 
L 8.203125 64.59375 
z
" id="DejaVuSans-37"/>
      </defs>
      <g transform="translate(13.592188 305.797223)scale(0.1 -0.1)">
       <use xlink:href="#DejaVuSans-2212"/>
       <use x="83.789062" xlink:href="#DejaVuSans-30"/>
       <use x="147.412109" xlink:href="#DejaVuSans-2e"/>
       <use x="179.199219" xlink:href="#DejaVuSans-30"/>
       <use x="242.822266" xlink:href="#DejaVuSans-37"/>
       <use x="306.445312" xlink:href="#DejaVuSans-35"/>
      </g>
     </g>
    </g>
    <g id="ytick_11">
     <g id="line2d_110">
      <g>
       <use style="stroke:#000000;stroke-width:0.8;" x="57.6" xlink:href="#m76bf7268ca" y="281.116692"/>
      </g>
     </g>
     <g id="text_34">
      <!-- −0.050 -->
      <g transform="translate(13.592188 284.915911)scale(0.1 -0.1)">
       <use xlink:href="#DejaVuSans-2212"/>
       <use x="83.789062" xlink:href="#DejaVuSans-30"/>
       <use x="147.412109" xlink:href="#DejaVuSans-2e"/>
       <use x="179.199219" xlink:href="#DejaVuSans-30"/>
       <use x="242.822266" xlink:href="#DejaVuSans-35"/>
       <use x="306.445312" xlink:href="#DejaVuSans-30"/>
      </g>
     </g>
    </g>
    <g id="ytick_12">
     <g id="line2d_111">
      <g>
       <use style="stroke:#000000;stroke-width:0.8;" x="57.6" xlink:href="#m76bf7268ca" y="260.23538"/>
      </g>
     </g>
     <g id="text_35">
      <!-- −0.025 -->
      <g transform="translate(13.592188 264.034599)scale(0.1 -0.1)">
       <use xlink:href="#DejaVuSans-2212"/>
       <use x="83.789062" xlink:href="#DejaVuSans-30"/>
       <use x="147.412109" xlink:href="#DejaVuSans-2e"/>
       <use x="179.199219" xlink:href="#DejaVuSans-30"/>
       <use x="242.822266" xlink:href="#DejaVuSans-32"/>
       <use x="306.445312" xlink:href="#DejaVuSans-35"/>
      </g>
     </g>
    </g>
    <g id="ytick_13">
     <g id="line2d_112">
      <g>
       <use style="stroke:#000000;stroke-width:0.8;" x="57.6" xlink:href="#m76bf7268ca" y="239.354068"/>
      </g>
     </g>
     <g id="text_36">
      <!-- 0.000 -->
      <g transform="translate(21.971875 243.153287)scale(0.1 -0.1)">
       <use xlink:href="#DejaVuSans-30"/>
       <use x="63.623047" xlink:href="#DejaVuSans-2e"/>
       <use x="95.410156" xlink:href="#DejaVuSans-30"/>
       <use x="159.033203" xlink:href="#DejaVuSans-30"/>
       <use x="222.65625" xlink:href="#DejaVuSans-30"/>
      </g>
     </g>
    </g>
    <g id="ytick_14">
     <g id="line2d_113">
      <g>
       <use style="stroke:#000000;stroke-width:0.8;" x="57.6" xlink:href="#m76bf7268ca" y="218.472756"/>
      </g>
     </g>
     <g id="text_37">
      <!-- 0.025 -->
      <g transform="translate(21.971875 222.271975)scale(0.1 -0.1)">
       <use xlink:href="#DejaVuSans-30"/>
       <use x="63.623047" xlink:href="#DejaVuSans-2e"/>
       <use x="95.410156" xlink:href="#DejaVuSans-30"/>
       <use x="159.033203" xlink:href="#DejaVuSans-32"/>
       <use x="222.65625" xlink:href="#DejaVuSans-35"/>
      </g>
     </g>
    </g>
    <g id="ytick_15">
     <g id="line2d_114">
      <g>
       <use style="stroke:#000000;stroke-width:0.8;" x="57.6" xlink:href="#m76bf7268ca" y="197.591444"/>
      </g>
     </g>
     <g id="text_38">
      <!-- 0.050 -->
      <g transform="translate(21.971875 201.390663)scale(0.1 -0.1)">
       <use xlink:href="#DejaVuSans-30"/>
       <use x="63.623047" xlink:href="#DejaVuSans-2e"/>
       <use x="95.410156" xlink:href="#DejaVuSans-30"/>
       <use x="159.033203" xlink:href="#DejaVuSans-35"/>
       <use x="222.65625" xlink:href="#DejaVuSans-30"/>
      </g>
     </g>
    </g>
    <g id="text_39">
     <!-- Orientation -->
     <defs>
      <path d="M 39.40625 66.21875 
Q 28.65625 66.21875 22.328125 58.203125 
Q 16.015625 50.203125 16.015625 36.375 
Q 16.015625 22.609375 22.328125 14.59375 
Q 28.65625 6.59375 39.40625 6.59375 
Q 50.140625 6.59375 56.421875 14.59375 
Q 62.703125 22.609375 62.703125 36.375 
Q 62.703125 50.203125 56.421875 58.203125 
Q 50.140625 66.21875 39.40625 66.21875 
z
M 39.40625 74.21875 
Q 54.734375 74.21875 63.90625 63.9375 
Q 73.09375 53.65625 73.09375 36.375 
Q 73.09375 19.140625 63.90625 8.859375 
Q 54.734375 -1.421875 39.40625 -1.421875 
Q 24.03125 -1.421875 14.8125 8.828125 
Q 5.609375 19.09375 5.609375 36.375 
Q 5.609375 53.65625 14.8125 63.9375 
Q 24.03125 74.21875 39.40625 74.21875 
z
" id="DejaVuSans-4f"/>
     </defs>
     <g transform="translate(7.5125 275.331344)rotate(-90)scale(0.1 -0.1)">
      <use xlink:href="#DejaVuSans-4f"/>
      <use x="78.710938" xlink:href="#DejaVuSans-72"/>
      <use x="119.824219" xlink:href="#DejaVuSans-69"/>
      <use x="147.607422" xlink:href="#DejaVuSans-65"/>
      <use x="209.130859" xlink:href="#DejaVuSans-6e"/>
      <use x="272.509766" xlink:href="#DejaVuSans-74"/>
      <use x="311.71875" xlink:href="#DejaVuSans-61"/>
      <use x="372.998047" xlink:href="#DejaVuSans-74"/>
      <use x="412.207031" xlink:href="#DejaVuSans-69"/>
      <use x="439.990234" xlink:href="#DejaVuSans-6f"/>
      <use x="501.171875" xlink:href="#DejaVuSans-6e"/>
     </g>
    </g>
   </g>
   <g id="line2d_115">
    <path clip-path="url(#p29ef28d3f5)" d="M 64.978512 239.354068 
L 83.424793 246.724782 
L 101.871074 246.724782 
L 120.317355 254.200465 
L 138.763636 259.201457 
L 157.209917 261.652426 
L 175.656198 263.381475 
L 194.102479 265.116571 
L 212.54876 265.339093 
" style="fill:none;stroke:#ff0000;stroke-linecap:square;stroke-width:1.5;"/>
   </g>
   <g id="line2d_116">
    <path clip-path="url(#p29ef28d3f5)" d="M 64.978512 239.354068 
L 83.424793 251.250307 
L 101.871074 251.250307 
L 120.317355 256.176988 
L 138.763636 254.532 
L 157.209917 254.37651 
L 175.656198 255.159111 
L 194.102479 258.098391 
L 212.54876 262.215662 
" style="fill:none;stroke:#0000ff;stroke-linecap:square;stroke-width:1.5;"/>
   </g>
   <g id="line2d_117">
    <path clip-path="url(#p29ef28d3f5)" d="M 64.978512 239.354068 
L 83.424793 232.160418 
L 101.871074 232.160418 
L 120.317355 233.868193 
L 138.763636 235.311974 
L 157.209917 233.225849 
L 175.656198 232.108484 
L 194.102479 232.165992 
L 212.54876 234.185533 
" style="fill:none;stroke:#008000;stroke-linecap:square;stroke-width:1.5;"/>
   </g>
   <g id="line2d_118">
    <path clip-path="url(#p29ef28d3f5)" d="M 64.978512 239.354068 
L 83.424793 236.127774 
L 101.871074 231.36497 
L 120.317355 229.337327 
L 138.763636 227.483481 
L 157.209917 227.483481 
L 175.656198 227.483481 
" style="fill:none;stroke:#ff0000;stroke-linecap:square;stroke-width:1.5;"/>
   </g>
   <g id="line2d_119">
    <path clip-path="url(#p29ef28d3f5)" d="M 64.978512 239.354068 
L 83.424793 230.011155 
L 101.871074 223.501197 
L 120.317355 223.011456 
L 138.763636 229.370703 
L 157.209917 229.370703 
L 175.656198 229.370703 
" style="fill:none;stroke:#0000ff;stroke-linecap:square;stroke-width:1.5;"/>
   </g>
   <g id="line2d_120">
    <path clip-path="url(#p29ef28d3f5)" d="M 64.978512 239.354068 
L 83.424793 248.874316 
L 101.871074 247.849483 
L 120.317355 249.410574 
L 138.763636 252.011705 
L 157.209917 252.011705 
L 175.656198 252.011705 
" style="fill:none;stroke:#008000;stroke-linecap:square;stroke-width:1.5;"/>
   </g>
   <g id="line2d_121">
    <path clip-path="url(#p29ef28d3f5)" d="M 64.978512 239.354068 
L 83.424793 239.354068 
L 101.871074 240.323943 
L 120.317355 240.323943 
L 138.763636 237.258034 
L 157.209917 234.67931 
L 175.656198 234.828657 
L 194.102479 235.554836 
L 212.54876 234.925832 
" style="fill:none;stroke:#ff0000;stroke-linecap:square;stroke-width:1.5;"/>
   </g>
   <g id="line2d_122">
    <path clip-path="url(#p29ef28d3f5)" d="M 64.978512 239.354068 
L 83.424793 239.354068 
L 101.871074 226.87937 
L 120.317355 226.87937 
L 138.763636 220.553035 
L 157.209917 223.360317 
L 175.656198 226.160493 
L 194.102479 231.67471 
L 212.54876 239.161873 
" style="fill:none;stroke:#0000ff;stroke-linecap:square;stroke-width:1.5;"/>
   </g>
   <g id="line2d_123">
    <path clip-path="url(#p29ef28d3f5)" d="M 64.978512 239.354068 
L 83.424793 239.354068 
L 101.871074 246.941773 
L 120.317355 246.941773 
L 138.763636 247.665034 
L 157.209917 248.826687 
L 175.656198 254.632362 
L 194.102479 257.469298 
L 212.54876 257.386697 
" style="fill:none;stroke:#008000;stroke-linecap:square;stroke-width:1.5;"/>
   </g>
   <g id="line2d_124">
    <path clip-path="url(#p29ef28d3f5)" d="M 64.978512 239.354068 
L 83.424793 235.445598 
L 101.871074 226.327929 
L 120.317355 226.327929 
L 138.763636 225.045082 
L 157.209917 226.523892 
L 175.656198 227.903878 
L 194.102479 227.903878 
" style="fill:none;stroke:#ff0000;stroke-linecap:square;stroke-width:1.5;"/>
   </g>
   <g id="line2d_125">
    <path clip-path="url(#p29ef28d3f5)" d="M 64.978512 239.354068 
L 83.424793 227.406351 
L 101.871074 199.211751 
L 120.317355 199.211751 
L 138.763636 192.122182 
L 157.209917 199.623167 
L 175.656198 209.691417 
L 194.102479 209.691417 
" style="fill:none;stroke:#0000ff;stroke-linecap:square;stroke-width:1.5;"/>
   </g>
   <g id="line2d_126">
    <path clip-path="url(#p29ef28d3f5)" d="M 64.978512 239.354068 
L 83.424793 235.351447 
L 101.871074 239.669732 
L 120.317355 239.669732 
L 138.763636 248.667103 
L 157.209917 256.229465 
L 175.656198 263.912699 
L 194.102479 263.912699 
" style="fill:none;stroke:#008000;stroke-linecap:square;stroke-width:1.5;"/>
   </g>
   <g id="line2d_127">
    <path clip-path="url(#p29ef28d3f5)" d="M 64.978512 239.354068 
L 83.424793 239.354068 
L 101.871074 235.330172 
L 120.317355 231.559286 
L 138.763636 232.390473 
L 157.209917 234.777737 
L 175.656198 234.777737 
L 194.102479 236.597291 
" style="fill:none;stroke:#ff0000;stroke-linecap:square;stroke-width:1.5;"/>
   </g>
   <g id="line2d_128">
    <path clip-path="url(#p29ef28d3f5)" d="M 64.978512 239.354068 
L 83.424793 239.354068 
L 101.871074 226.046594 
L 120.317355 219.481365 
L 138.763636 223.694533 
L 157.209917 229.623838 
L 175.656198 229.623838 
L 194.102479 237.409449 
" style="fill:none;stroke:#0000ff;stroke-linecap:square;stroke-width:1.5;"/>
   </g>
   <g id="line2d_129">
    <path clip-path="url(#p29ef28d3f5)" d="M 64.978512 239.354068 
L 83.424793 239.354068 
L 101.871074 245.246807 
L 120.317355 247.918477 
L 138.763636 248.937361 
L 157.209917 250.627911 
L 175.656198 250.627911 
L 194.102479 249.099288 
" style="fill:none;stroke:#008000;stroke-linecap:square;stroke-width:1.5;"/>
   </g>
   <g id="line2d_130">
    <path clip-path="url(#p29ef28d3f5)" d="M 64.978512 239.354068 
L 83.424793 239.354068 
L 101.871074 232.179271 
L 120.317355 231.8253 
L 138.763636 233.893409 
L 157.209917 233.893409 
L 175.656198 235.341133 
L 194.102479 237.509816 
L 212.54876 239.553938 
" style="fill:none;stroke:#ff0000;stroke-linecap:square;stroke-width:1.5;"/>
   </g>
   <g id="line2d_131">
    <path clip-path="url(#p29ef28d3f5)" d="M 64.978512 239.354068 
L 83.424793 239.354068 
L 101.871074 226.266808 
L 120.317355 223.626669 
L 138.763636 226.831941 
L 157.209917 226.831941 
L 175.656198 231.860289 
L 194.102479 238.867695 
L 212.54876 248.433089 
" style="fill:none;stroke:#0000ff;stroke-linecap:square;stroke-width:1.5;"/>
   </g>
   <g id="line2d_132">
    <path clip-path="url(#p29ef28d3f5)" d="M 64.978512 239.354068 
L 83.424793 239.354068 
L 101.871074 242.096651 
L 120.317355 236.911726 
L 138.763636 236.854892 
L 157.209917 236.854892 
L 175.656198 234.454475 
L 194.102479 231.047086 
L 212.54876 227.557147 
" style="fill:none;stroke:#008000;stroke-linecap:square;stroke-width:1.5;"/>
   </g>
   <g id="line2d_133">
    <path clip-path="url(#p29ef28d3f5)" d="M 64.978512 239.354068 
L 83.424793 254.231278 
L 101.871074 256.377118 
L 120.317355 254.651881 
L 138.763636 253.083138 
L 157.209917 252.855725 
L 175.656198 252.855725 
L 194.102479 251.047054 
" style="fill:none;stroke:#ff0000;stroke-linecap:square;stroke-width:1.5;"/>
   </g>
   <g id="line2d_134">
    <path clip-path="url(#p29ef28d3f5)" d="M 64.978512 239.354068 
L 83.424793 260.143277 
L 101.871074 256.654571 
L 120.317355 249.688634 
L 138.763636 245.264748 
L 157.209917 244.826941 
L 175.656198 244.826941 
L 194.102479 250.836988 
" style="fill:none;stroke:#0000ff;stroke-linecap:square;stroke-width:1.5;"/>
   </g>
   <g id="line2d_135">
    <path clip-path="url(#p29ef28d3f5)" d="M 64.978512 239.354068 
L 83.424793 232.04767 
L 101.871074 245.786627 
L 120.317355 245.457868 
L 138.763636 238.97309 
L 157.209917 236.727172 
L 175.656198 236.727172 
L 194.102479 235.465244 
" style="fill:none;stroke:#008000;stroke-linecap:square;stroke-width:1.5;"/>
   </g>
   <g id="line2d_136">
    <path clip-path="url(#p29ef28d3f5)" d="M 64.978512 239.354068 
L 83.424793 246.95572 
L 101.871074 257.92585 
L 120.317355 257.92585 
L 138.763636 253.186202 
L 157.209917 253.186202 
L 175.656198 249.147843 
L 194.102479 250.492761 
" style="fill:none;stroke:#ff0000;stroke-linecap:square;stroke-width:1.5;"/>
   </g>
   <g id="line2d_137">
    <path clip-path="url(#p29ef28d3f5)" d="M 64.978512 239.354068 
L 83.424793 255.843138 
L 101.871074 270.128221 
L 120.317355 270.128221 
L 138.763636 247.327812 
L 157.209917 247.327812 
L 175.656198 243.789693 
L 194.102479 245.127652 
" style="fill:none;stroke:#0000ff;stroke-linecap:square;stroke-width:1.5;"/>
   </g>
   <g id="line2d_138">
    <path clip-path="url(#p29ef28d3f5)" d="M 64.978512 239.354068 
L 83.424793 236.833541 
L 101.871074 240.203041 
L 120.317355 240.203041 
L 138.763636 254.200878 
L 157.209917 254.200878 
L 175.656198 254.728551 
L 194.102479 252.432864 
" style="fill:none;stroke:#008000;stroke-linecap:square;stroke-width:1.5;"/>
   </g>
   <g id="line2d_139">
    <path clip-path="url(#p29ef28d3f5)" d="M 64.978512 239.354068 
L 83.424793 236.63887 
L 101.871074 234.95418 
L 120.317355 235.226489 
L 138.763636 235.226489 
L 157.209917 236.170032 
L 175.656198 240.119912 
L 194.102479 246.648088 
" style="fill:none;stroke:#ff0000;stroke-linecap:square;stroke-width:1.5;"/>
   </g>
   <g id="line2d_140">
    <path clip-path="url(#p29ef28d3f5)" d="M 64.978512 239.354068 
L 83.424793 228.259502 
L 101.871074 207.614673 
L 120.317355 198.730992 
L 138.763636 198.730992 
L 157.209917 200.995397 
L 175.656198 210.47485 
L 194.102479 222.798065 
" style="fill:none;stroke:#0000ff;stroke-linecap:square;stroke-width:1.5;"/>
   </g>
   <g id="line2d_141">
    <path clip-path="url(#p29ef28d3f5)" d="M 64.978512 239.354068 
L 83.424793 237.428721 
L 101.871074 238.110397 
L 120.317355 237.94164 
L 138.763636 237.94164 
L 157.209917 236.121678 
L 175.656198 237.120517 
L 194.102479 241.391473 
" style="fill:none;stroke:#008000;stroke-linecap:square;stroke-width:1.5;"/>
   </g>
   <g id="line2d_142">
    <path clip-path="url(#p29ef28d3f5)" d="M 64.978512 239.354068 
L 83.424793 251.706725 
L 101.871074 250.839705 
L 120.317355 249.701361 
L 138.763636 249.701361 
L 157.209917 251.71636 
L 175.656198 254.944091 
L 194.102479 255.756125 
L 212.54876 252.463712 
" style="fill:none;stroke:#ff0000;stroke-linecap:square;stroke-width:1.5;"/>
   </g>
   <g id="line2d_143">
    <path clip-path="url(#p29ef28d3f5)" d="M 64.978512 239.354068 
L 83.424793 273.042721 
L 101.871074 269.30727 
L 120.317355 266.307267 
L 138.763636 266.307267 
L 157.209917 270.40821 
L 175.656198 279.47757 
L 194.102479 291.336694 
L 212.54876 302.085818 
" style="fill:none;stroke:#0000ff;stroke-linecap:square;stroke-width:1.5;"/>
   </g>
   <g id="line2d_144">
    <path clip-path="url(#p29ef28d3f5)" d="M 64.978512 239.354068 
L 83.424793 236.762844 
L 101.871074 252.14921 
L 120.317355 253.559764 
L 138.763636 253.559764 
L 157.209917 248.216129 
L 175.656198 245.871605 
L 194.102479 241.985599 
L 212.54876 237.990402 
" style="fill:none;stroke:#008000;stroke-linecap:square;stroke-width:1.5;"/>
   </g>
   <g id="line2d_145">
    <path clip-path="url(#p29ef28d3f5)" d="M 64.978512 239.354068 
L 83.424793 239.354068 
L 101.871074 239.354068 
L 120.317355 253.375894 
L 138.763636 247.351841 
L 157.209917 236.278303 
L 175.656198 224.573039 
L 194.102479 218.158947 
L 212.54876 218.158947 
" style="fill:none;stroke:#ff0000;stroke-linecap:square;stroke-width:1.5;"/>
   </g>
   <g id="line2d_146">
    <path clip-path="url(#p29ef28d3f5)" d="M 64.978512 239.354068 
L 83.424793 239.354068 
L 101.871074 239.354068 
L 120.317355 240.011812 
L 138.763636 221.249864 
L 157.209917 225.166356 
L 175.656198 233.341215 
L 194.102479 241.770479 
L 212.54876 241.770479 
" style="fill:none;stroke:#0000ff;stroke-linecap:square;stroke-width:1.5;"/>
   </g>
   <g id="line2d_147">
    <path clip-path="url(#p29ef28d3f5)" d="M 64.978512 239.354068 
L 83.424793 239.354068 
L 101.871074 239.354068 
L 120.317355 235.549661 
L 138.763636 241.864381 
L 157.209917 244.238035 
L 175.656198 254.847286 
L 194.102479 265.276264 
L 212.54876 265.276264 
" style="fill:none;stroke:#008000;stroke-linecap:square;stroke-width:1.5;"/>
   </g>
   <g id="line2d_148">
    <path clip-path="url(#p29ef28d3f5)" d="M 64.978512 239.354068 
L 83.424793 248.847978 
L 101.871074 248.403844 
L 120.317355 248.403844 
L 138.763636 246.750716 
L 157.209917 246.750716 
L 175.656198 246.869917 
" style="fill:none;stroke:#ff0000;stroke-linecap:square;stroke-width:1.5;"/>
   </g>
   <g id="line2d_149">
    <path clip-path="url(#p29ef28d3f5)" d="M 64.978512 239.354068 
L 83.424793 254.681555 
L 101.871074 250.443315 
L 120.317355 250.443315 
L 138.763636 240.644697 
L 157.209917 240.644697 
L 175.656198 247.346587 
" style="fill:none;stroke:#0000ff;stroke-linecap:square;stroke-width:1.5;"/>
   </g>
   <g id="line2d_150">
    <path clip-path="url(#p29ef28d3f5)" d="M 64.978512 239.354068 
L 83.424793 236.919848 
L 101.871074 229.669168 
L 120.317355 229.669168 
L 138.763636 228.216005 
L 157.209917 228.216005 
L 175.656198 232.284791 
" style="fill:none;stroke:#008000;stroke-linecap:square;stroke-width:1.5;"/>
   </g>
   <g id="patch_17">
    <path d="M 57.6 307.584 
L 57.6 186.624 
" style="fill:none;stroke:#000000;stroke-linecap:square;stroke-linejoin:miter;stroke-width:0.8;"/>
   </g>
   <g id="patch_18">
    <path d="M 219.927273 307.584 
L 219.927273 186.624 
" style="fill:none;stroke:#000000;stroke-linecap:square;stroke-linejoin:miter;stroke-width:0.8;"/>
   </g>
   <g id="patch_19">
    <path d="M 57.6 307.584 
L 219.927273 307.584 
" style="fill:none;stroke:#000000;stroke-linecap:square;stroke-linejoin:miter;stroke-width:0.8;"/>
   </g>
   <g id="patch_20">
    <path d="M 57.6 186.624 
L 219.927273 186.624 
" style="fill:none;stroke:#000000;stroke-linecap:square;stroke-linejoin:miter;stroke-width:0.8;"/>
   </g>
   <g id="legend_3">
    <g id="patch_21">
     <path d="M 48.708949 199.206125 
L 232.818324 199.206125 
Q 234.818324 199.206125 234.818324 197.206125 
L 234.818324 183.528 
Q 234.818324 181.528 232.818324 181.528 
L 48.708949 181.528 
Q 46.708949 181.528 46.708949 183.528 
L 46.708949 197.206125 
Q 46.708949 199.206125 48.708949 199.206125 
z
" style="fill:#4c4c4c;opacity:0.5;stroke:#4c4c4c;stroke-linejoin:miter;"/>
    </g>
    <g id="patch_22">
     <path d="M 46.708949 197.206125 
L 230.818324 197.206125 
Q 232.818324 197.206125 232.818324 195.206125 
L 232.818324 181.528 
Q 232.818324 179.528 230.818324 179.528 
L 46.708949 179.528 
Q 44.708949 179.528 44.708949 181.528 
L 44.708949 195.206125 
Q 44.708949 197.206125 46.708949 197.206125 
z
" style="fill:#ffffff;opacity:0.8;stroke:#cccccc;stroke-linejoin:miter;"/>
    </g>
    <g id="line2d_151">
     <path d="M 48.708949 187.626437 
L 68.708949 187.626437 
" style="fill:none;stroke:#ff0000;stroke-linecap:square;stroke-width:1.5;"/>
    </g>
    <g id="line2d_152"/>
    <g id="text_40">
     <!-- orix -->
     <g transform="translate(76.708949 191.126437)scale(0.1 -0.1)">
      <use xlink:href="#DejaVuSans-6f"/>
      <use x="61.181641" xlink:href="#DejaVuSans-72"/>
      <use x="102.294922" xlink:href="#DejaVuSans-69"/>
      <use x="130.078125" xlink:href="#DejaVuSans-78"/>
     </g>
    </g>
    <g id="line2d_153">
     <path d="M 115.635511 187.626437 
L 135.635511 187.626437 
" style="fill:none;stroke:#0000ff;stroke-linecap:square;stroke-width:1.5;"/>
    </g>
    <g id="line2d_154"/>
    <g id="text_41">
     <!-- oriy -->
     <g transform="translate(143.635511 191.126437)scale(0.1 -0.1)">
      <use xlink:href="#DejaVuSans-6f"/>
      <use x="61.181641" xlink:href="#DejaVuSans-72"/>
      <use x="102.294922" xlink:href="#DejaVuSans-69"/>
      <use x="130.078125" xlink:href="#DejaVuSans-79"/>
     </g>
    </g>
    <g id="line2d_155">
     <path d="M 182.562074 187.626437 
L 202.562074 187.626437 
" style="fill:none;stroke:#008000;stroke-linecap:square;stroke-width:1.5;"/>
    </g>
    <g id="line2d_156"/>
    <g id="text_42">
     <!-- oriz -->
     <g transform="translate(210.562074 191.126437)scale(0.1 -0.1)">
      <use xlink:href="#DejaVuSans-6f"/>
      <use x="61.181641" xlink:href="#DejaVuSans-72"/>
      <use x="102.294922" xlink:href="#DejaVuSans-69"/>
      <use x="130.078125" xlink:href="#DejaVuSans-7a"/>
     </g>
    </g>
   </g>
  </g>
  <g id="text_43">
   <!-- Data for button 0 -->
   <defs>
    <path d="M 19.671875 64.796875 
L 19.671875 8.109375 
L 31.59375 8.109375 
Q 46.6875 8.109375 53.6875 14.9375 
Q 60.6875 21.78125 60.6875 36.53125 
Q 60.6875 51.171875 53.6875 57.984375 
Q 46.6875 64.796875 31.59375 64.796875 
z
M 9.8125 72.90625 
L 30.078125 72.90625 
Q 51.265625 72.90625 61.171875 64.09375 
Q 71.09375 55.28125 71.09375 36.53125 
Q 71.09375 17.671875 61.125 8.828125 
Q 51.171875 0 30.078125 0 
L 9.8125 0 
z
" id="DejaVuSans-44"/>
    <path id="DejaVuSans-20"/>
    <path d="M 37.109375 75.984375 
L 37.109375 68.5 
L 28.515625 68.5 
Q 23.6875 68.5 21.796875 66.546875 
Q 19.921875 64.59375 19.921875 59.515625 
L 19.921875 54.6875 
L 34.71875 54.6875 
L 34.71875 47.703125 
L 19.921875 47.703125 
L 19.921875 0 
L 10.890625 0 
L 10.890625 47.703125 
L 2.296875 47.703125 
L 2.296875 54.6875 
L 10.890625 54.6875 
L 10.890625 58.5 
Q 10.890625 67.625 15.140625 71.796875 
Q 19.390625 75.984375 28.609375 75.984375 
z
" id="DejaVuSans-66"/>
    <path d="M 48.6875 27.296875 
Q 48.6875 37.203125 44.609375 42.84375 
Q 40.53125 48.484375 33.40625 48.484375 
Q 26.265625 48.484375 22.1875 42.84375 
Q 18.109375 37.203125 18.109375 27.296875 
Q 18.109375 17.390625 22.1875 11.75 
Q 26.265625 6.109375 33.40625 6.109375 
Q 40.53125 6.109375 44.609375 11.75 
Q 48.6875 17.390625 48.6875 27.296875 
z
M 18.109375 46.390625 
Q 20.953125 51.265625 25.265625 53.625 
Q 29.59375 56 35.59375 56 
Q 45.5625 56 51.78125 48.09375 
Q 58.015625 40.1875 58.015625 27.296875 
Q 58.015625 14.40625 51.78125 6.484375 
Q 45.5625 -1.421875 35.59375 -1.421875 
Q 29.59375 -1.421875 25.265625 0.953125 
Q 20.953125 3.328125 18.109375 8.203125 
L 18.109375 0 
L 9.078125 0 
L 9.078125 75.984375 
L 18.109375 75.984375 
z
" id="DejaVuSans-62"/>
    <path d="M 8.5 21.578125 
L 8.5 54.6875 
L 17.484375 54.6875 
L 17.484375 21.921875 
Q 17.484375 14.15625 20.5 10.265625 
Q 23.53125 6.390625 29.59375 6.390625 
Q 36.859375 6.390625 41.078125 11.03125 
Q 45.3125 15.671875 45.3125 23.6875 
L 45.3125 54.6875 
L 54.296875 54.6875 
L 54.296875 0 
L 45.3125 0 
L 45.3125 8.40625 
Q 42.046875 3.421875 37.71875 1 
Q 33.40625 -1.421875 27.6875 -1.421875 
Q 18.265625 -1.421875 13.375 4.4375 
Q 8.5 10.296875 8.5 21.578125 
z
M 31.109375 56 
z
" id="DejaVuSans-75"/>
   </defs>
   <g transform="translate(178.49625 16.030125)scale(0.12 -0.12)">
    <use xlink:href="#DejaVuSans-44"/>
    <use x="77.001953" xlink:href="#DejaVuSans-61"/>
    <use x="138.28125" xlink:href="#DejaVuSans-74"/>
    <use x="177.490234" xlink:href="#DejaVuSans-61"/>
    <use x="238.769531" xlink:href="#DejaVuSans-20"/>
    <use x="270.556641" xlink:href="#DejaVuSans-66"/>
    <use x="305.761719" xlink:href="#DejaVuSans-6f"/>
    <use x="366.943359" xlink:href="#DejaVuSans-72"/>
    <use x="408.056641" xlink:href="#DejaVuSans-20"/>
    <use x="439.84375" xlink:href="#DejaVuSans-62"/>
    <use x="503.320312" xlink:href="#DejaVuSans-75"/>
    <use x="566.699219" xlink:href="#DejaVuSans-74"/>
    <use x="605.908203" xlink:href="#DejaVuSans-74"/>
    <use x="645.117188" xlink:href="#DejaVuSans-6f"/>
    <use x="706.298828" xlink:href="#DejaVuSans-6e"/>
    <use x="769.677734" xlink:href="#DejaVuSans-20"/>
    <use x="801.464844" xlink:href="#DejaVuSans-30"/>
   </g>
  </g>
 </g>
 <defs>
  <clipPath id="p0d18adeb77">
   <rect height="120.96" width="162.327273" x="57.6" y="41.472"/>
  </clipPath>
  <clipPath id="pffe5f95b89">
   <rect height="120.96" width="162.327273" x="252.392727" y="41.472"/>
  </clipPath>
  <clipPath id="p29ef28d3f5">
   <rect height="120.96" width="162.327273" x="57.6" y="186.624"/>
  </clipPath>
 </defs>
</svg>
